<?xml version="1.0" standalone="no"?>
 <!DOCTYPE svg PUBLIC "-//W3C//DTD SVG 1.1//EN" 
 "http://www.w3.org/Graphics/SVG/1.1/DTD/svg11.dtd"> 
<svg
  xmlns:svg="http://www.w3.org/2000/svg"
  xmlns="http://www.w3.org/2000/svg"
  xmlns:xlink="http://www.w3.org/1999/xlink"
  version="1.1"
  width="1280" height="1280" viewBox="0.0000 0.0000 28.9814 28.9814">
<title>SVG Image created as encoder-board-F_Cu.svg date 2025/11/29 15:07:26 </title>
  <desc>Image generated by PCBNEW </desc>
<g style="fill:#000000; fill-opacity:1.0000;stroke:#000000; stroke-opacity:1.0000;
stroke-linecap:round; stroke-linejoin:round;"
 transform="translate(0 0) scale(1 1)">
<path style="fill:#C83434; fill-opacity:1.0000; stroke:none;fill-rule:evenodd;"
d="M 13.6000,10.4500
13.5810,10.5457
13.5268,10.6268
13.4457,10.6810
13.3500,10.7000
12.6500,10.7000
12.5543,10.6810
12.4732,10.6268
12.4190,10.5457
12.4000,10.4500
12.4000,9.5500
12.4190,9.4543
12.4732,9.3732
12.5543,9.3190
12.6500,9.3000
13.3500,9.3000
13.4457,9.3190
13.5268,9.3732
13.5810,9.4543
13.6000,9.5500
Z" /> 
<path style="fill:#C83434; fill-opacity:1.0000; stroke:none;fill-rule:evenodd;"
d="M 11.6000,10.4500
11.5810,10.5457
11.5268,10.6268
11.4457,10.6810
11.3500,10.7000
10.6500,10.7000
10.5543,10.6810
10.4732,10.6268
10.4190,10.5457
10.4000,10.4500
10.4000,9.5500
10.4190,9.4543
10.4732,9.3732
10.5543,9.3190
10.6500,9.3000
11.3500,9.3000
11.4457,9.3190
11.5268,9.3732
11.5810,9.4543
11.6000,9.5500
Z" /> 
<path style="fill:#C83434; fill-opacity:1.0000; stroke:none;fill-rule:evenodd;"
d="M 19.5500,8.6000
19.4543,8.5810
19.3732,8.5268
19.3190,8.4457
19.3000,8.3500
19.3000,7.6500
19.3190,7.5543
19.3732,7.4732
19.4543,7.4190
19.5500,7.4000
20.4500,7.4000
20.5457,7.4190
20.6268,7.4732
20.6810,7.5543
20.7000,7.6500
20.7000,8.3500
20.6810,8.4457
20.6268,8.5268
20.5457,8.5810
20.4500,8.6000
Z" /> 
<path style="fill:#C83434; fill-opacity:1.0000; stroke:none;fill-rule:evenodd;"
d="M 19.5500,6.6000
19.4543,6.5810
19.3732,6.5268
19.3190,6.4457
19.3000,6.3500
19.3000,5.6500
19.3190,5.5543
19.3732,5.4732
19.4543,5.4190
19.5500,5.4000
20.4500,5.4000
20.5457,5.4190
20.6268,5.4732
20.6810,5.5543
20.7000,5.6500
20.7000,6.3500
20.6810,6.4457
20.6268,6.5268
20.5457,6.5810
20.4500,6.6000
Z" /> 
<path style="fill:#C83434; fill-opacity:1.0000; stroke:none;fill-rule:evenodd;"
d="M 13.6250,4.4750
13.6060,4.5707
13.5518,4.6518
13.4707,4.7060
13.3750,4.7250
12.7000,4.7250
12.6043,4.7060
12.5232,4.6518
12.4690,4.5707
12.4500,4.4750
12.4500,3.5250
12.4690,3.4293
12.5232,3.3482
12.6043,3.2940
12.7000,3.2750
13.3750,3.2750
13.4707,3.2940
13.5518,3.3482
13.6060,3.4293
13.6250,3.5250
Z" /> 
<path style="fill:#C83434; fill-opacity:1.0000; stroke:none;fill-rule:evenodd;"
d="M 11.5500,4.4750
11.5310,4.5707
11.4768,4.6518
11.3957,4.7060
11.3000,4.7250
10.6250,4.7250
10.5293,4.7060
10.4482,4.6518
10.3940,4.5707
10.3750,4.4750
10.3750,3.5250
10.3940,3.4293
10.4482,3.3482
10.5293,3.2940
10.6250,3.2750
11.3000,3.2750
11.3957,3.2940
11.4768,3.3482
11.5310,3.4293
11.5500,3.5250
Z" /> 
<path style="fill:#C83434; fill-opacity:1.0000; stroke:none;fill-rule:evenodd;"
d="M 11.2300,25.8500
9.5300,25.8500
9.5300,24.1500
11.2300,24.1500
Z" /> 
</g>
<g style="fill:#C83434; fill-opacity:1.0000; stroke:none;">
<circle cx="12.9200" cy="25.0000" r="0.8500" /> 
</g>
<g style="fill:#C83434; fill-opacity:1.0000; stroke:none;">
<circle cx="15.4600" cy="25.0000" r="0.8500" /> 
</g>
<g style="fill:#C83434; fill-opacity:1.0000; stroke:none;">
<circle cx="18.0000" cy="25.0000" r="0.8500" /> 
<path style="fill:#C83434; fill-opacity:1.0000; stroke:none;fill-rule:evenodd;"
d="M 8.5500,8.6000
8.4543,8.5810
8.3732,8.5268
8.3190,8.4457
8.3000,8.3500
8.3000,7.6500
8.3190,7.5543
8.3732,7.4732
8.4543,7.4190
8.5500,7.4000
9.4500,7.4000
9.5457,7.4190
9.6268,7.4732
9.6810,7.5543
9.7000,7.6500
9.7000,8.3500
9.6810,8.4457
9.6268,8.5268
9.5457,8.5810
9.4500,8.6000
Z" /> 
<path style="fill:#C83434; fill-opacity:1.0000; stroke:none;fill-rule:evenodd;"
d="M 8.5500,6.6000
8.4543,6.5810
8.3732,6.5268
8.3190,6.4457
8.3000,6.3500
8.3000,5.6500
8.3190,5.5543
8.3732,5.4732
8.4543,5.4190
8.5500,5.4000
9.4500,5.4000
9.5457,5.4190
9.6268,5.4732
9.6810,5.5543
9.7000,5.6500
9.7000,6.3500
9.6810,6.4457
9.6268,6.5268
9.5457,6.5810
9.4500,6.6000
Z" /> 
<path style="fill:#C83434; fill-opacity:1.0000; stroke:none;fill-rule:evenodd;"
d="M 15.4000,9.5500
15.4190,9.4543
15.4732,9.3732
15.5543,9.3190
15.6500,9.3000
16.3500,9.3000
16.4457,9.3190
16.5268,9.3732
16.5810,9.4543
16.6000,9.5500
16.6000,10.4500
16.5810,10.5457
16.5268,10.6268
16.4457,10.6810
16.3500,10.7000
15.6500,10.7000
15.5543,10.6810
15.4732,10.6268
15.4190,10.5457
15.4000,10.4500
Z" /> 
<path style="fill:#C83434; fill-opacity:1.0000; stroke:none;fill-rule:evenodd;"
d="M 17.4000,9.5500
17.4190,9.4543
17.4732,9.3732
17.5543,9.3190
17.6500,9.3000
18.3500,9.3000
18.4457,9.3190
18.5268,9.3732
18.5810,9.4543
18.6000,9.5500
18.6000,10.4500
18.5810,10.5457
18.5268,10.6268
18.4457,10.6810
18.3500,10.7000
17.6500,10.7000
17.5543,10.6810
17.4732,10.6268
17.4190,10.5457
17.4000,10.4500
Z" /> 
<path style="fill:#C83434; fill-opacity:1.0000; stroke:none;fill-rule:evenodd;"
d="M 15.3750,3.5250
15.3940,3.4293
15.4482,3.3482
15.5293,3.2940
15.6250,3.2750
16.3000,3.2750
16.3957,3.2940
16.4768,3.3482
16.5310,3.4293
16.5500,3.5250
16.5500,4.4750
16.5310,4.5707
16.4768,4.6518
16.3957,4.7060
16.3000,4.7250
15.6250,4.7250
15.5293,4.7060
15.4482,4.6518
15.3940,4.5707
15.3750,4.4750
Z" /> 
<path style="fill:#C83434; fill-opacity:1.0000; stroke:none;fill-rule:evenodd;"
d="M 17.4500,3.5250
17.4690,3.4293
17.5232,3.3482
17.6043,3.2940
17.7000,3.2750
18.3750,3.2750
18.4707,3.2940
18.5518,3.3482
18.6060,3.4293
18.6250,3.5250
18.6250,4.4750
18.6060,4.5707
18.5518,4.6518
18.4707,4.7060
18.3750,4.7250
17.7000,4.7250
17.6043,4.7060
17.5232,4.6518
17.4690,4.5707
17.4500,4.4750
Z" /> 
<path style="fill:#C83434; fill-opacity:1.0000; stroke:none;fill-rule:evenodd;"
d="M 22.4750,23.4125
22.5707,23.4315
22.6518,23.4857
22.7060,23.5668
22.7250,23.6625
22.7250,24.3375
22.7060,24.4332
22.6518,24.5143
22.5707,24.5685
22.4750,24.5875
21.5250,24.5875
21.4293,24.5685
21.3482,24.5143
21.2940,24.4332
21.2750,24.3375
21.2750,23.6625
21.2940,23.5668
21.3482,23.4857
21.4293,23.4315
21.5250,23.4125
Z" /> 
<path style="fill:#C83434; fill-opacity:1.0000; stroke:none;fill-rule:evenodd;"
d="M 22.4750,25.4875
22.5707,25.5065
22.6518,25.5607
22.7060,25.6418
22.7250,25.7375
22.7250,26.4125
22.7060,26.5082
22.6518,26.5893
22.5707,26.6435
22.4750,26.6625
21.5250,26.6625
21.4293,26.6435
21.3482,26.5893
21.2940,26.5082
21.2750,26.4125
21.2750,25.7375
21.2940,25.6418
21.3482,25.5607
21.4293,25.5065
21.5250,25.4875
Z" /> 
</g>
<g style="fill:#C83434; fill-opacity:1.0000; stroke:none;">
<circle cx="25.5000" cy="15.0000" r="0.4000" /> 
</g>
<g style="fill:#C83434; fill-opacity:1.0000; stroke:none;">
<circle cx="25.5000" cy="13.0000" r="0.4000" /> 
</g>
<g style="fill:#C83434; fill-opacity:1.0000; stroke:none;">
<circle cx="3.5000" cy="17.0000" r="0.4000" /> 
</g>
<g style="fill:#C83434; fill-opacity:1.0000; stroke:none;">
<circle cx="3.5000" cy="21.0000" r="0.4000" /> 
</g>
<g style="fill:#C83434; fill-opacity:1.0000; stroke:none;">
<circle cx="24.0000" cy="21.0000" r="0.4000" /> 
</g>
<g style="fill:#C83434; fill-opacity:1.0000; stroke:none;">
<circle cx="24.0000" cy="23.0000" r="0.4000" /> 
</g>
<g style="fill:#C83434; fill-opacity:1.0000; stroke:none;">
<circle cx="24.0000" cy="19.0000" r="0.4000" /> 
</g>
<g style="fill:#C83434; fill-opacity:1.0000; stroke:none;">
<circle cx="24.0000" cy="5.0000" r="0.4000" /> 
</g>
<g style="fill:#C83434; fill-opacity:1.0000; stroke:none;">
<circle cx="3.5000" cy="11.0000" r="0.4000" /> 
</g>
<g style="fill:#C83434; fill-opacity:1.0000; stroke:none;">
<circle cx="24.0000" cy="17.0000" r="0.4000" /> 
</g>
<g style="fill:#C83434; fill-opacity:1.0000; stroke:none;">
<circle cx="14.5000" cy="16.5000" r="0.4000" /> 
</g>
<g style="fill:#C83434; fill-opacity:1.0000; stroke:none;">
<circle cx="7.0000" cy="26.0000" r="0.4000" /> 
</g>
<g style="fill:#C83434; fill-opacity:1.0000; stroke:none;">
<circle cx="3.5000" cy="5.0000" r="0.4000" /> 
</g>
<g style="fill:#C83434; fill-opacity:1.0000; stroke:none;">
<circle cx="18.7500" cy="9.7500" r="0.2250" /> 
</g>
<g style="fill:#C83434; fill-opacity:1.0000; stroke:none;">
<circle cx="14.5000" cy="19.5000" r="0.4000" /> 
</g>
<g style="fill:#C83434; fill-opacity:1.0000; stroke:none;">
<circle cx="5.0000" cy="23.0000" r="0.4000" /> 
</g>
<g style="fill:#C83434; fill-opacity:1.0000; stroke:none;">
<circle cx="3.5000" cy="7.0000" r="0.4000" /> 
</g>
<g style="fill:#C83434; fill-opacity:1.0000; stroke:none;">
<circle cx="3.5000" cy="9.0000" r="0.4000" /> 
</g>
<g style="fill:#C83434; fill-opacity:1.0000; stroke:none;">
<circle cx="3.5000" cy="19.0000" r="0.4000" /> 
</g>
<g style="fill:#C83434; fill-opacity:1.0000; stroke:none;">
<circle cx="5.0000" cy="15.0000" r="0.4000" /> 
</g>
<g style="fill:#C83434; fill-opacity:1.0000; stroke:none;">
<circle cx="5.0000" cy="17.0000" r="0.4000" /> 
</g>
<g style="fill:#C83434; fill-opacity:1.0000; stroke:none;">
<circle cx="25.5000" cy="5.0000" r="0.4000" /> 
</g>
<g style="fill:#C83434; fill-opacity:1.0000; stroke:none;">
<circle cx="5.0000" cy="11.0000" r="0.4000" /> 
</g>
<g style="fill:#C83434; fill-opacity:1.0000; stroke:none;">
<circle cx="24.0000" cy="7.0000" r="0.4000" /> 
</g>
<g style="fill:#C83434; fill-opacity:1.0000; stroke:none;">
<circle cx="24.0000" cy="9.0000" r="0.4000" /> 
</g>
<g style="fill:#C83434; fill-opacity:1.0000; stroke:none;">
<circle cx="3.5000" cy="15.0000" r="0.4000" /> 
</g>
<g style="fill:#C83434; fill-opacity:1.0000; stroke:none;">
<circle cx="14.5000" cy="13.5000" r="0.4000" /> 
</g>
<g style="fill:#C83434; fill-opacity:1.0000; stroke:none;">
<circle cx="5.0000" cy="19.0000" r="0.4000" /> 
</g>
<g style="fill:#C83434; fill-opacity:1.0000; stroke:none;">
<circle cx="15.0000" cy="8.7500" r="0.2250" /> 
</g>
<g style="fill:#C83434; fill-opacity:1.0000; stroke:none;">
<circle cx="10.2500" cy="9.7500" r="0.2250" /> 
</g>
<g style="fill:#C83434; fill-opacity:1.0000; stroke:none;">
<circle cx="5.0000" cy="5.0000" r="0.4000" /> 
</g>
<g style="fill:#C83434; fill-opacity:1.0000; stroke:none;">
<circle cx="24.0000" cy="13.0000" r="0.4000" /> 
</g>
<g style="fill:#C83434; fill-opacity:1.0000; stroke:none;">
<circle cx="18.7400" cy="4.3300" r="0.2250" /> 
</g>
<g style="fill:#C83434; fill-opacity:1.0000; stroke:none;">
<circle cx="25.5000" cy="19.0000" r="0.4000" /> 
</g>
<g style="fill:#C83434; fill-opacity:1.0000; stroke:none;">
<circle cx="5.0000" cy="9.0000" r="0.4000" /> 
</g>
<g style="fill:#C83434; fill-opacity:1.0000; stroke:none;">
<circle cx="11.7500" cy="7.2500" r="0.2250" /> 
</g>
<g style="fill:#C83434; fill-opacity:1.0000; stroke:none;">
<circle cx="5.0000" cy="21.0000" r="0.4000" /> 
</g>
<g style="fill:#C83434; fill-opacity:1.0000; stroke:none;">
<circle cx="25.5000" cy="17.0000" r="0.4000" /> 
</g>
<g style="fill:#C83434; fill-opacity:1.0000; stroke:none;">
<circle cx="25.5000" cy="11.0000" r="0.4000" /> 
</g>
<g style="fill:#C83434; fill-opacity:1.0000; stroke:none;">
<circle cx="24.0000" cy="11.0000" r="0.4000" /> 
</g>
<g style="fill:#C83434; fill-opacity:1.0000; stroke:none;">
<circle cx="11.7500" cy="7.9500" r="0.2250" /> 
</g>
<g style="fill:#C83434; fill-opacity:1.0000; stroke:none;">
<circle cx="10.2600" cy="3.7100" r="0.2250" /> 
</g>
<g style="fill:#C83434; fill-opacity:1.0000; stroke:none;">
<circle cx="8.5000" cy="24.0000" r="0.4000" /> 
</g>
<g style="fill:#C83434; fill-opacity:1.0000; stroke:none;">
<circle cx="25.5000" cy="23.0000" r="0.4000" /> 
</g>
<g style="fill:#C83434; fill-opacity:1.0000; stroke:none;">
<circle cx="10.2500" cy="4.3400" r="0.2250" /> 
</g>
<g style="fill:#C83434; fill-opacity:1.0000; stroke:none;">
<circle cx="5.0000" cy="13.0000" r="0.4000" /> 
</g>
<g style="fill:#C83434; fill-opacity:1.0000; stroke:none;">
<circle cx="18.7400" cy="3.6000" r="0.2250" /> 
</g>
<g style="fill:#C83434; fill-opacity:1.0000; stroke:none;">
<circle cx="7.0000" cy="24.0000" r="0.4000" /> 
</g>
<g style="fill:#C83434; fill-opacity:1.0000; stroke:none;">
<circle cx="25.5000" cy="21.0000" r="0.4000" /> 
</g>
<g style="fill:#C83434; fill-opacity:1.0000; stroke:none;">
<circle cx="18.7500" cy="10.2500" r="0.2250" /> 
</g>
<g style="fill:#C83434; fill-opacity:1.0000; stroke:none;">
<circle cx="8.5000" cy="26.0000" r="0.4000" /> 
</g>
<g style="fill:#C83434; fill-opacity:1.0000; stroke:none;">
<circle cx="10.2500" cy="10.2500" r="0.2250" /> 
</g>
<g style="fill:#C83434; fill-opacity:1.0000; stroke:none;">
<circle cx="25.5000" cy="7.0000" r="0.4000" /> 
</g>
<g style="fill:#C83434; fill-opacity:1.0000; stroke:none;">
<circle cx="3.5000" cy="23.0000" r="0.4000" /> 
</g>
<g style="fill:#C83434; fill-opacity:1.0000; stroke:none;">
<circle cx="3.5000" cy="13.0000" r="0.4000" /> 
</g>
<g style="fill:#C83434; fill-opacity:1.0000; stroke:none;">
<circle cx="15.7500" cy="8.7500" r="0.2250" /> 
</g>
<g style="fill:#C83434; fill-opacity:1.0000; stroke:none;">
<circle cx="25.5000" cy="9.0000" r="0.4000" /> 
</g>
<g style="fill:#C83434; fill-opacity:1.0000; stroke:none;">
<circle cx="24.0000" cy="15.0000" r="0.4000" /> 
</g>
<g style="fill:#C83434; fill-opacity:1.0000; stroke:none;">
<circle cx="5.0000" cy="7.0000" r="0.4000" /> 
</g>
<g style="fill:#C83434; fill-opacity:1.0000; stroke:none;">
<circle cx="18.9150" cy="7.6650" r="0.2250" /> 
</g>
<g style="fill:#C83434; fill-opacity:1.0000; stroke:none;">
<circle cx="10.0000" cy="8.5000" r="0.2250" /> 
</g>
<g style="fill:#C83434; fill-opacity:1.0000; stroke:none;">
<circle cx="17.2500" cy="6.7500" r="0.2250" /> 
</g>
<g style="fill:#C83434; fill-opacity:1.0000; stroke:none;">
<circle cx="20.5000" cy="23.9625" r="0.4000" /> 
</g>
<g style="fill:#C83434; fill-opacity:1.0000; stroke:none;">
<circle cx="15.8600" cy="5.2700" r="0.2250" /> 
</g>
<g style="fill:#C83434; fill-opacity:1.0000; stroke:none;">
<circle cx="21.2500" cy="6.0000" r="0.2250" /> 
</g>
<g style="fill:#C83434; fill-opacity:1.0000; stroke:none;">
<circle cx="7.7500" cy="6.0000" r="0.2250" /> 
</g>
<g style="fill:#C83434; fill-opacity:1.0000; stroke:none;">
<circle cx="12.9300" cy="5.2699" r="0.2250" /> 
</g>
<g style="fill:#C83434; fill-opacity:1.0000; stroke:none;">
<circle cx="13.7500" cy="9.2500" r="0.2250" /> 
</g>
<g style="fill:none; 
stroke:#C83434; stroke-width:0.2500; stroke-opacity:1; 
stroke-linecap:round; stroke-linejoin:round;">
<path d="M10.2500 4.3400
L10.6225 4.3400
" />
<path d="M18.7500 10.2500
L18.2500 10.2500
" />
<path d="M10.6225 4.3400
L10.9625 4.0000
" />
<path d="M18.2500 10.2500
L18.0000 10.0000
" />
<path d="M18.2500 9.7500
L18.0000 10.0000
" />
<path d="M18.7400 3.6000
L18.3400 4.0000
" />
<path d="M18.4100 4.0000
L18.0375 4.0000
" />
<path d="M18.7500 9.7500
L18.2500 9.7500
" />
<path d="M10.7500 10.2500
L11.0000 10.0000
" />
<path d="M10.2500 9.7500
L10.7500 9.7500
" />
<path d="M10.7500 9.7500
L11.0000 10.0000
" />
<path d="M10.6725 3.7100
L10.9625 4.0000
" />
<path d="M10.2500 10.2500
L10.7500 10.2500
" />
<path d="M18.3400 4.0000
L18.0375 4.0000
" />
<path d="M10.2600 3.7100
L10.6725 3.7100
" />
<path d="M18.7400 4.3300
L18.4100 4.0000
" />
<path d="M19.2500 8.0000
L20.0000 8.0000
" />
<path d="M18.9150 7.6650
L19.2500 8.0000
" />
<path d="M9.5000 8.0000
L9.0000 8.0000
" />
<path d="M10.0000 8.5000
L9.5000 8.0000
" />
<path d="M16.0000 24.4600
L15.4600 25.0000
" />
<path d="M17.2500 8.7500
L16.0000 10.0000
" />
<path d="M17.2500 6.7500
L17.2500 8.7500
" />
<path d="M16.0000 10.0000
L16.0000 24.4600
" />
<path d="M20.0000 6.0000
L21.2500 6.0000
" />
<path d="M19.0375 23.9625
L18.0000 25.0000
" />
<path d="M20.5000 23.9625
L19.0375 23.9625
" />
<path d="M20.5000 23.9625
L21.9625 23.9625
" />
<path d="M21.9625 23.9625
L22.0000 24.0000
" />
<path d="M12.9300 5.2699
L12.9300 5.2000
" />
<path d="M15.8600 5.2700
L15.9625 5.1675
" />
<path d="M12.9300 5.2000
L13.0375 5.0925
" />
<path d="M9.0000 6.0000
L7.7500 6.0000
" />
<path d="M13.0375 5.0925
L13.0375 4.0000
" />
<path d="M15.9625 5.1675
L15.9625 4.0000
" />
<path d="M13.7500 9.2500
L13.0000 10.0000
" />
<path d="M13.0000 10.0000
L13.0000 24.9200
" />
<path d="M13.0000 24.9200
L12.9200 25.0000
" />
<path style="fill:#C83434; fill-opacity:1.0000; stroke:none;fill-rule:evenodd;"
d="M 24.0015,2.0005
24.2041,2.0053
24.2102,2.0056
24.4014,2.0196
24.4077,2.0203
24.5896,2.0430
24.5961,2.0440
24.7684,2.0750
24.7751,2.0764
24.9396,2.1155
24.9464,2.1174
25.1000,2.1633
25.1103,2.1669
25.4009,2.2826
25.4146,2.2890
25.6759,2.4321
25.6890,2.4403
25.9253,2.6111
25.9372,2.6208
26.1140,2.7855
26.1506,2.8195
26.1610,2.8305
26.2470,2.9327
26.3524,3.0580
26.3610,3.0696
26.5304,3.3269
26.5373,3.3387
26.6663,3.5918
26.6836,3.6257
26.6888,3.6375
26.8099,3.9521
26.8136,3.9635
26.9064,4.2988
26.9089,4.3098
26.9697,4.6456
26.9712,4.6575
26.9967,4.9661
26.9991,4.9949
26.9995,5.0051
26.9995,23.9985
26.9995,24.0015
26.9947,24.2041
26.9944,24.2102
26.9804,24.4013
26.9797,24.4077
26.9570,24.5895
26.9560,24.5961
26.9250,24.7684
26.9236,24.7751
26.8845,24.9396
26.8826,24.9464
26.8367,25.1000
26.8331,25.1103
26.7174,25.4009
26.7110,25.4146
26.5679,25.6759
26.5597,25.6890
26.3889,25.9253
26.3792,25.9372
26.1805,26.1506
26.1695,26.1610
25.9420,26.3524
25.9304,26.3610
25.6731,26.5304
25.6612,26.5373
25.3743,26.6836
25.3625,26.6888
25.0479,26.8099
25.0365,26.8136
24.7012,26.9064
24.6902,26.9089
24.3544,26.9697
24.3425,26.9713
24.0051,26.9991
23.9949,26.9995
23.2163,26.9995
23.1493,26.9798
23.1035,26.9270
23.0936,26.8579
23.1108,26.8104
23.1594,26.7316
23.1594,26.7316
23.2145,26.5652
23.2145,26.5652
23.2250,26.4625
23.2250,26.4625
23.2250,26.3250
20.7750,26.3250
20.7750,26.4625
20.7855,26.5652
20.8406,26.7316
20.8406,26.7316
20.8892,26.8104
20.9077,26.8778
20.8868,26.9445
20.8331,26.9892
20.7837,26.9995
5.0015,26.9995
4.9985,26.9995
4.7959,26.9947
4.7898,26.9944
4.5987,26.9804
4.5923,26.9797
4.4105,26.9570
4.4039,26.9560
4.2316,26.9250
4.2249,26.9236
4.0604,26.8845
4.0536,26.8826
3.9000,26.8367
3.8897,26.8331
3.5991,26.7174
3.5854,26.7110
3.3241,26.5679
3.3110,26.5597
3.0747,26.3889
3.0628,26.3792
2.8494,26.1805
2.8390,26.1695
2.8285,26.1570
2.6476,25.9420
2.6390,25.9304
2.6296,25.9162
2.4696,25.6731
2.4627,25.6612
2.4561,25.6483
2.3164,25.3743
2.3112,25.3625
2.1901,25.0479
2.1864,25.0365
2.0936,24.7012
2.0911,24.6902
2.0303,24.3543
2.0287,24.3425
2.0089,24.1022
9.0300,24.1022
9.0300,24.7500
9.9470,24.7500
9.9141,24.8070
9.8800,24.9342
9.8800,25.0658
9.9141,25.1930
9.9470,25.2500
9.0300,25.2500
9.0300,25.8978
9.0364,25.9574
9.0364,25.9574
9.0866,26.0921
9.0866,26.0921
9.1728,26.2072
9.1728,26.2072
9.2879,26.2934
9.2879,26.2934
9.4226,26.3436
9.4226,26.3436
9.4822,26.3500
9.4822,26.3500
10.1300,26.3500
10.1300,25.4330
10.1870,25.4659
10.3142,25.5000
10.4458,25.5000
10.5730,25.4659
10.6300,25.4330
10.6300,26.3500
11.2778,26.3500
11.2778,26.3500
11.3374,26.3436
11.3374,26.3436
11.4721,26.2934
11.4721,26.2934
11.5872,26.2072
11.5872,26.2072
11.6733,26.0921
11.6734,26.0921
11.7224,25.9605
11.7643,25.9046
11.8298,25.8802
11.8980,25.8950
11.9263,25.9162
12.0402,26.0301
12.2122,26.1550
12.2122,26.1550
12.2122,26.1551
12.4016,26.2516
12.6038,26.3172
12.8137,26.3505
12.8137,26.3505
13.0263,26.3505
13.0263,26.3505
13.2362,26.3172
13.4384,26.2516
13.6278,26.1551
13.7145,26.0921
13.7998,26.0301
13.7998,26.0301
13.7998,26.0301
13.9501,25.8798
13.9501,25.8798
13.9501,25.8798
14.0750,25.7078
14.0750,25.7078
14.0751,25.7078
14.0795,25.6991
14.1275,25.6483
14.1953,25.6315
14.2614,25.6540
14.3005,25.6991
14.3050,25.7078
14.4299,25.8798
14.5802,26.0301
14.7522,26.1550
14.7522,26.1550
14.7522,26.1551
14.9416,26.2516
15.1438,26.3172
15.3537,26.3505
15.3537,26.3505
15.5663,26.3505
15.5663,26.3505
15.7762,26.3172
15.9784,26.2516
16.1678,26.1551
16.2545,26.0921
16.3398,26.0301
16.3398,26.0301
16.3398,26.0301
16.4901,25.8798
16.4901,25.8798
16.4901,25.8798
16.6150,25.7078
16.6150,25.7078
16.6151,25.7078
16.6195,25.6991
16.6675,25.6483
16.7353,25.6315
16.8014,25.6540
16.8405,25.6991
16.8450,25.7078
16.9699,25.8798
17.1202,26.0301
17.2922,26.1550
17.2922,26.1550
17.2922,26.1551
17.4816,26.2516
17.6838,26.3172
17.8937,26.3505
17.8937,26.3505
18.1063,26.3505
18.1063,26.3505
18.3162,26.3172
18.5184,26.2516
18.7078,26.1551
18.7945,26.0921
18.8798,26.0301
18.8798,26.0301
18.8798,26.0301
19.0301,25.8798
19.0301,25.8798
19.0301,25.8798
19.1550,25.7078
19.1550,25.7078
19.1551,25.7078
19.2516,25.5184
19.3172,25.3162
19.3505,25.1063
19.3505,24.8937
19.3402,24.8284
19.3248,24.7314
19.3337,24.6621
19.3787,24.6087
19.4455,24.5880
19.4473,24.5880
19.8006,24.5880
19.8677,24.6077
19.8883,24.6243
19.9260,24.6620
19.9260,24.6620
20.0734,24.7605
20.0735,24.7605
20.1857,24.8070
20.2373,24.8284
20.2373,24.8284
20.2373,24.8284
20.4113,24.8630
20.4113,24.8630
20.4113,24.8630
20.5887,24.8630
20.5887,24.8630
20.7627,24.8284
20.8218,24.8039
20.8402,24.8019
20.8574,24.7950
20.8742,24.7983
20.8913,24.7964
20.9078,24.8047
20.9260,24.8082
20.9505,24.8261
20.9537,24.8277
20.9547,24.8287
20.9558,24.8297
21.0563,24.9302
21.0707,24.9391
21.0801,24.9480
21.0913,24.9675
21.1064,24.9842
21.1085,24.9971
21.1150,25.0085
21.1140,25.0310
21.1176,25.0532
21.1124,25.0652
21.1118,25.0783
21.0987,25.0966
21.0898,25.1172
21.0749,25.1301
21.0713,25.1352
21.0671,25.1369
21.0597,25.1433
21.0567,25.1452
21.0567,25.1452
20.9327,25.2692
20.8406,25.4184
20.8406,25.4184
20.7855,25.5848
20.7855,25.5848
20.7750,25.6875
20.7750,25.8250
23.2250,25.8250
23.2250,25.6875
23.2250,25.6875
23.2145,25.5848
23.1594,25.4184
23.1594,25.4184
23.0673,25.2692
22.9433,25.1452
22.9433,25.1452
22.9403,25.1433
22.9387,25.1415
22.9377,25.1407
22.9378,25.1405
22.8936,25.0914
22.8824,25.0224
22.9102,24.9583
22.9403,24.9323
22.9437,24.9302
23.0677,24.8062
23.1598,24.6568
23.2150,24.4903
23.2255,24.3875
23.2255,23.6125
23.2150,23.5097
23.1598,23.3432
23.0677,23.1938
22.9437,23.0698
22.7943,22.9777
22.6278,22.9225
22.6278,22.9225
22.5250,22.9120
21.4750,22.9120
21.4750,22.9120
21.3722,22.9225
21.3722,22.9225
21.2057,22.9777
21.2057,22.9777
21.1139,23.0343
21.0563,23.0698
21.0563,23.0698
21.0563,23.0698
21.0099,23.1162
20.9486,23.1497
20.8789,23.1447
20.8748,23.1431
20.7627,23.0966
20.7627,23.0966
20.5887,23.0620
20.5887,23.0620
20.4113,23.0620
20.4113,23.0620
20.2373,23.0966
20.2373,23.0966
20.0735,23.1645
20.0734,23.1645
19.9260,23.2630
19.9260,23.2630
19.8883,23.3007
19.8270,23.3342
19.8006,23.3370
19.1052,23.3370
19.1052,23.3370
19.0991,23.3370
18.9759,23.3370
18.8751,23.3570
18.8751,23.3570
18.8550,23.3610
18.8550,23.3610
18.8079,23.3806
18.7412,23.4082
18.7412,23.4082
18.6388,23.4766
18.4578,23.6576
18.3965,23.6911
18.3318,23.6878
18.3162,23.6828
18.1572,23.6576
18.1063,23.6495
17.8937,23.6495
17.8450,23.6572
17.6838,23.6828
17.4816,23.7484
17.2922,23.8450
17.1202,23.9699
16.9699,24.1202
16.9699,24.1202
16.8498,24.2855
16.7945,24.3281
16.7249,24.3341
16.6631,24.3015
16.6287,24.2407
16.6255,24.2126
16.6255,11.2311
16.6452,11.1640
16.6844,11.1255
16.8187,11.0427
16.9127,10.9487
16.9740,10.9152
17.0437,10.9202
17.0880,10.9487
17.1817,11.0423
17.3309,11.1344
17.3309,11.1344
17.4973,11.1895
17.4973,11.1895
17.6000,11.2000
17.7500,11.2000
18.2500,11.2000
18.4000,11.2000
18.4000,11.2000
18.5027,11.1895
18.6691,11.1344
18.6691,11.1344
18.8183,11.0423
18.9423,10.9183
19.0344,10.7691
19.0344,10.7691
19.0895,10.6027
19.0895,10.6027
19.1000,10.5000
19.1000,10.5000
19.1000,10.2500
18.2500,10.2500
18.2500,11.2000
17.7500,11.2000
17.7500,11.2000
17.7500,9.1652
17.7553,9.1470
17.7557,9.1281
17.7692,9.0999
17.7697,9.0981
17.7708,9.0964
17.7873,9.0718
17.8043,9.0463
17.8390,8.9625
17.8515,8.9325
17.8755,8.8116
17.8755,7.7364
18.1895,7.7364
18.2174,7.8766
18.2174,7.8766
18.2720,8.0086
18.2720,8.0086
18.3514,8.1275
18.3514,8.1275
18.4525,8.2285
18.4525,8.2285
18.5713,8.3079
18.5713,8.3079
18.5713,8.3079
18.7034,8.3626
18.7034,8.3626
18.7090,8.3643
18.7214,8.3717
18.7324,8.3741
18.7607,8.3953
18.7722,8.4068
18.8057,8.4681
18.8079,8.4819
18.8100,8.5028
18.8100,8.5028
18.8652,8.6693
18.8652,8.6693
18.9064,8.7361
18.9248,8.8035
18.9039,8.8701
18.8502,8.9149
18.7809,8.9236
18.7357,8.9067
18.6691,8.8656
18.6691,8.8656
18.5027,8.8105
18.5027,8.8105
18.4000,8.8000
18.2500,8.8000
18.2500,9.7500
19.1000,9.7500
19.1000,9.5000
19.1000,9.5000
19.0895,9.3973
19.0344,9.2309
19.0344,9.2309
18.9933,9.1643
18.9748,9.0969
18.9958,9.0302
19.0494,8.9855
19.1187,8.9768
19.1639,8.9936
19.2307,9.0348
19.3972,9.0900
19.5000,9.1005
20.5000,9.1005
20.5000,9.1005
20.5000,9.1005
20.5563,9.0947
20.6028,9.0900
20.7693,9.0348
20.9187,8.9427
21.0427,8.8187
21.1348,8.6693
21.1900,8.5028
21.2005,8.4000
21.2005,7.6000
21.1998,7.5935
21.1900,7.4972
21.1900,7.4972
21.1755,7.4534
21.1348,7.3307
21.0427,7.1813
20.9490,7.0877
20.9466,7.0832
20.9424,7.0804
20.9300,7.0529
20.9156,7.0264
20.9159,7.0213
20.9139,7.0166
20.9184,6.9868
20.9205,6.9567
20.9238,6.9512
20.9244,6.9476
20.9356,6.9315
20.9437,6.9180
20.9463,6.9151
21.0427,6.8187
21.0695,6.7752
21.0765,6.7672
21.0975,6.7540
21.1160,6.7374
21.1268,6.7355
21.1356,6.7300
21.1572,6.7301
21.1725,6.7274
21.1725,6.7255
21.3215,6.7255
21.4158,6.7067
21.4616,6.6976
21.5937,6.6429
21.7125,6.5635
21.8135,6.4625
21.8929,6.3437
21.9476,6.2116
21.9684,6.1071
21.9755,6.0715
21.9755,5.9285
21.9476,5.7884
21.9476,5.7884
21.9476,5.7884
21.8929,5.6563
21.8929,5.6563
21.8929,5.6563
21.8135,5.5375
21.8135,5.5375
21.7125,5.4365
21.7125,5.4365
21.5937,5.3571
21.5937,5.3571
21.4616,5.3024
21.4616,5.3024
21.3215,5.2745
21.3215,5.2745
21.1785,5.2745
21.1725,5.2745
21.1725,5.2724
21.1130,5.2612
21.0640,5.2159
21.0427,5.1813
20.9187,5.0573
20.7841,4.9743
20.7693,4.9652
20.7693,4.9652
20.7646,4.9636
20.6028,4.9100
20.6028,4.9100
20.5000,4.8995
19.5000,4.8995
19.5000,4.8995
19.3972,4.9100
19.3972,4.9100
19.2307,4.9652
19.2307,4.9652
19.2291,4.9661
19.2280,4.9664
19.2241,4.9682
19.2238,4.9676
19.1618,4.9846
19.0951,4.9636
19.0503,4.9100
19.0417,4.8407
19.0565,4.8008
19.0563,4.8007
19.0577,4.7977
19.0585,4.7955
19.0594,4.7941
19.0594,4.7941
19.1145,4.6277
19.1145,4.6277
19.1250,4.5250
19.1250,4.5250
19.1250,4.2500
18.2875,4.2500
18.2875,5.2250
18.4250,5.2250
18.4250,5.2250
18.5277,5.2145
18.6941,5.1594
18.6941,5.1594
18.6955,5.1585
18.6965,5.1582
18.7007,5.1563
18.7010,5.1570
18.7629,5.1401
18.8295,5.1610
18.8743,5.2146
18.8830,5.2840
18.8680,5.3240
18.8682,5.3241
18.8670,5.3267
18.8661,5.3291
18.8652,5.3307
18.8652,5.3307
18.8616,5.3414
18.8100,5.4972
18.8100,5.4972
18.8100,5.4972
18.7995,5.6000
18.7995,6.4000
18.7995,6.4000
18.8100,6.5028
18.8100,6.5028
18.8652,6.6693
18.8652,6.6693
18.9175,6.7542
18.9360,6.8216
18.9151,6.8883
18.8614,6.9330
18.8362,6.9409
18.7034,6.9674
18.7034,6.9674
18.5713,7.0220
18.5713,7.0220
18.4525,7.1014
18.4525,7.1014
18.3514,7.2025
18.3514,7.2025
18.2720,7.3213
18.2720,7.3213
18.2174,7.4534
18.2174,7.4534
18.1895,7.5935
18.1895,7.5935
18.1895,7.7364
18.1895,7.7364
18.1895,7.7364
17.8755,7.7364
17.8755,7.1573
17.8901,7.0989
17.8929,7.0937
17.8929,7.0937
17.9476,6.9616
17.9755,6.8215
17.9755,6.6785
17.9755,6.6785
17.9476,6.5384
17.9476,6.5384
17.9476,6.5384
17.8929,6.4063
17.8929,6.4063
17.8929,6.4063
17.8135,6.2875
17.8135,6.2875
17.7125,6.1865
17.7125,6.1865
17.5937,6.1071
17.5937,6.1071
17.4616,6.0524
17.4616,6.0524
17.3215,6.0245
17.3215,6.0245
17.1785,6.0245
17.1785,6.0245
17.0384,6.0524
17.0384,6.0524
16.9063,6.1071
16.9063,6.1071
16.7875,6.1865
16.7875,6.1865
16.6865,6.2875
16.6865,6.2875
16.6071,6.4063
16.6071,6.4063
16.5524,6.5384
16.5524,6.5384
16.5245,6.6785
16.5245,6.6785
16.5245,6.8215
16.5245,6.8215
16.5245,6.8215
16.5524,6.9616
16.5524,6.9616
16.6071,7.0936
16.6099,7.0989
16.6245,7.1573
16.6245,8.4395
16.6048,8.5066
16.5882,8.5272
16.3522,8.7632
16.2909,8.7967
16.2645,8.7995
15.6000,8.7995
15.6000,8.7995
15.4972,8.8100
15.4972,8.8100
15.3307,8.8652
15.3307,8.8652
15.1813,8.9573
15.0573,9.0813
14.9652,9.2307
14.9652,9.2307
14.9635,9.2359
14.9100,9.3972
14.9100,9.3972
14.9100,9.3972
14.8995,9.5000
14.8995,10.5000
14.8995,10.5000
14.9100,10.6028
14.9100,10.6028
14.9651,10.7691
14.9652,10.7693
15.0573,10.9187
15.1813,11.0427
15.3156,11.1255
15.3623,11.1775
15.3745,11.2311
15.3745,23.5403
15.3548,23.6073
15.3020,23.6531
15.2699,23.6628
15.1438,23.6828
14.9416,23.7484
14.7522,23.8450
14.5802,23.9699
14.4299,24.1202
14.3049,24.2922
14.3005,24.3009
14.2525,24.3517
14.1847,24.3685
14.1186,24.3460
14.0795,24.3009
14.0750,24.2922
13.9501,24.1202
13.7998,23.9699
13.7998,23.9699
13.6766,23.8804
13.6339,23.8251
13.6255,23.7801
13.6255,11.2311
13.6452,11.1640
13.6844,11.1255
13.8187,11.0427
13.9427,10.9187
14.0348,10.7693
14.0900,10.6028
14.1005,10.5000
14.1005,9.9546
14.1202,9.8876
14.1556,9.8515
14.2125,9.8135
14.3135,9.7125
14.3929,9.5937
14.4476,9.4616
14.4567,9.4158
14.4755,9.3215
14.4755,9.1785
14.4476,9.0384
14.4476,9.0384
14.4476,9.0384
14.3929,8.9063
14.3929,8.9063
14.3929,8.9063
14.3135,8.7875
14.3135,8.7875
14.2125,8.6865
14.2125,8.6865
14.0937,8.6071
14.0937,8.6071
13.9616,8.5524
13.9616,8.5524
13.8215,8.5245
13.8215,8.5245
13.6785,8.5245
13.6785,8.5245
13.5384,8.5524
13.5384,8.5524
13.4063,8.6071
13.4063,8.6071
13.2875,8.6865
13.2108,8.7632
13.1495,8.7967
13.1231,8.7995
12.6000,8.7995
12.6000,8.7995
12.4972,8.8100
12.4972,8.8100
12.3307,8.8652
12.3307,8.8652
12.1813,8.9573
12.0873,9.0513
12.0260,9.0848
11.9563,9.0798
11.9120,9.0513
11.8183,8.9577
11.6691,8.8656
11.6691,8.8656
11.5027,8.8105
11.5027,8.8105
11.4000,8.8000
11.2500,8.8000
11.2500,11.2000
11.4000,11.2000
11.4000,11.2000
11.5027,11.1895
11.6691,11.1344
11.6691,11.1344
11.8183,11.0423
11.9120,10.9487
11.9733,10.9152
12.0430,10.9202
12.0873,10.9487
12.1813,11.0427
12.3156,11.1255
12.3623,11.1775
12.3745,11.2311
12.3745,23.6863
12.3548,23.7533
12.3068,23.7967
12.2122,23.8450
12.0402,23.9699
11.9263,24.0838
11.8650,24.1173
11.7953,24.1123
11.7393,24.0704
11.7224,24.0395
11.6734,23.9079
11.6733,23.9079
11.5872,23.7928
11.5872,23.7928
11.4721,23.7066
11.4721,23.7066
11.3374,23.6564
11.3374,23.6564
11.2778,23.6500
10.6300,23.6500
10.6300,24.5670
10.5730,24.5341
10.4458,24.5000
10.3142,24.5000
10.1870,24.5341
10.1300,24.5670
10.1300,23.6500
9.4822,23.6500
9.4226,23.6564
9.4226,23.6564
9.2879,23.7066
9.2879,23.7066
9.1728,23.7928
9.1728,23.7928
9.0866,23.9079
9.0866,23.9079
9.0364,24.0426
9.0364,24.0426
9.0300,24.1022
2.0089,24.1022
2.0009,24.0051
2.0005,23.9949
2.0005,10.5000
9.9000,10.5000
9.9105,10.6027
9.9656,10.7691
9.9656,10.7691
10.0577,10.9183
10.1817,11.0423
10.3309,11.1344
10.3309,11.1344
10.4973,11.1895
10.4973,11.1895
10.6000,11.2000
10.7500,11.2000
10.7500,11.2000
10.7500,10.2500
9.9000,10.2500
9.9000,10.5000
2.0005,10.5000
2.0005,6.0715
7.0245,6.0715
7.0524,6.2116
7.0524,6.2116
7.1071,6.3436
7.1071,6.3437
7.1865,6.4625
7.1865,6.4625
7.2875,6.5635
7.2875,6.5635
7.4063,6.6429
7.4063,6.6429
7.4063,6.6429
7.5384,6.6976
7.5384,6.6976
7.5384,6.6976
7.6785,6.7255
7.8275,6.7255
7.8275,6.7276
7.8869,6.7388
7.9235,6.7672
7.9305,6.7752
7.9573,6.8187
8.0537,6.9151
8.0563,6.9180
8.0695,6.9463
8.0844,6.9736
8.0841,6.9777
8.0859,6.9814
8.0817,7.0122
8.0795,7.0433
8.0769,7.0473
8.0765,7.0506
8.0696,7.0587
8.0510,7.0877
7.9573,7.1813
7.8652,7.3307
7.8652,7.3307
7.8100,7.4972
7.8100,7.4972
7.8100,7.4972
7.7995,7.6000
7.7995,8.4000
7.7995,8.4000
7.8100,8.5028
7.8100,8.5028
7.8652,8.6693
7.8652,8.6693
7.8913,8.7116
7.9573,8.8187
8.0813,8.9427
8.2307,9.0348
8.3972,9.0900
8.5000,9.1005
9.5000,9.1005
9.5361,9.0968
9.6048,9.1096
9.6176,9.1171
9.6563,9.1429
9.6563,9.1429
9.6563,9.1429
9.7884,9.1976
9.8062,9.2012
9.8274,9.2054
9.8893,9.2378
9.9238,9.2985
9.9209,9.3660
9.9105,9.3973
9.9105,9.3973
9.9000,9.5000
9.9000,9.7500
10.7500,9.7500
10.7500,8.8000
10.7385,8.7885
10.7050,8.7272
10.7046,8.6766
10.7255,8.5715
10.7255,8.4285
10.6976,8.2884
10.6976,8.2884
10.6976,8.2884
10.6429,8.1563
10.6429,8.1563
10.6429,8.1563
10.5635,8.0375
10.5635,8.0375
10.4625,7.9365
10.4625,7.9365
10.3437,7.8571
10.3436,7.8571
10.2770,7.8295
10.2226,7.7856
10.2006,7.7193
10.2005,7.7149
10.2005,7.6000
10.2005,7.6000
10.1900,7.4972
10.1900,7.4972
10.1755,7.4534
10.1348,7.3307
10.0427,7.1813
9.9490,7.0877
9.9156,7.0264
9.9205,6.9567
9.9490,6.9123
9.9731,6.8883
10.0427,6.8187
10.1348,6.6693
10.1900,6.5028
10.2005,6.4000
10.2005,5.6000
10.1900,5.4972
10.1348,5.3307
10.1339,5.3292
10.1336,5.3280
10.1318,5.3241
10.1324,5.3238
10.1154,5.2618
10.1364,5.1951
10.1900,5.1503
10.2593,5.1417
10.2992,5.1565
10.2993,5.1563
10.3023,5.1577
10.3045,5.1585
10.3059,5.1594
10.3059,5.1594
10.4723,5.2145
10.4723,5.2145
10.5750,5.2250
10.7125,5.2250
10.7125,5.2250
10.7125,4.2500
9.8750,4.2500
9.8750,4.5250
9.8855,4.6277
9.9406,4.7941
9.9406,4.7941
9.9415,4.7955
9.9418,4.7965
9.9437,4.8007
9.9430,4.8010
9.9599,4.8629
9.9390,4.9295
9.8854,4.9743
9.8160,4.9830
9.7760,4.9680
9.7759,4.9682
9.7733,4.9670
9.7708,4.9661
9.7693,4.9652
9.7693,4.9652
9.6028,4.9100
9.6028,4.9100
9.5000,4.8995
8.5000,4.8995
8.5000,4.8995
8.3972,4.9100
8.3972,4.9100
8.2307,4.9652
8.2307,4.9652
8.0813,5.0573
7.9573,5.1813
7.9573,5.1813
7.9360,5.2159
7.8840,5.2626
7.8275,5.2726
7.8275,5.2745
7.6785,5.2745
7.5384,5.3024
7.5384,5.3024
7.4063,5.3571
7.4063,5.3571
7.2875,5.4365
7.2875,5.4365
7.1865,5.5375
7.1865,5.5375
7.1071,5.6563
7.1071,5.6563
7.0524,5.7884
7.0524,5.7884
7.0245,5.9285
7.0245,5.9285
7.0245,6.0715
7.0245,6.0715
7.0245,6.0715
2.0005,6.0715
2.0005,5.0015
2.0005,4.9985
2.0011,4.9743
2.0053,4.7959
2.0056,4.7898
2.0153,4.6575
2.0196,4.5986
2.0203,4.5923
2.0430,4.4104
2.0440,4.4039
2.0750,4.2316
2.0764,4.2249
2.1155,4.0604
2.1174,4.0536
2.1633,3.9000
2.1669,3.8897
2.2826,3.5991
2.2890,3.5854
2.3495,3.4750
9.8750,3.4750
9.8750,3.7500
10.7125,3.7500
10.7125,2.7750
11.2125,2.7750
11.2125,5.2250
11.3500,5.2250
11.3500,5.2250
11.4527,5.2145
11.6191,5.1594
11.6191,5.1594
11.7683,5.0673
11.8923,4.9433
11.8942,4.9403
11.8960,4.9387
11.8968,4.9377
11.8970,4.9378
11.9461,4.8936
12.0151,4.8824
12.0792,4.9102
12.0900,4.9204
12.0986,4.9296
12.1073,4.9437
12.1851,5.0215
12.1864,5.0228
12.2014,5.0524
12.2173,5.0815
12.2173,5.0837
12.2180,5.0851
12.2173,5.0915
12.2177,5.1320
12.2158,5.1417
12.2045,5.1984
12.2045,5.3414
12.2045,5.3414
12.2045,5.3414
12.2324,5.4815
12.2324,5.4815
12.2871,5.6135
12.2871,5.6136
12.3665,5.7324
12.3665,5.7324
12.4675,5.8334
12.4675,5.8334
12.5863,5.9128
12.5863,5.9128
12.6163,5.9252
12.7184,5.9675
12.7184,5.9675
12.7184,5.9675
12.8585,5.9954
12.8585,5.9954
13.0015,5.9954
13.0958,5.9766
13.1416,5.9675
13.2737,5.9128
13.3925,5.8334
13.4935,5.7324
13.5729,5.6136
13.6276,5.4815
13.6524,5.3571
13.6555,5.3414
13.6555,5.2530
13.6752,5.1859
13.7144,5.1474
13.8437,5.0677
13.9677,4.9437
14.0598,4.7943
14.1150,4.6278
14.1255,4.5250
14.1255,3.4750
14.1255,3.4750
14.8745,3.4750
14.8745,4.5250
14.8745,4.5250
14.8850,4.6278
14.8850,4.6278
14.9402,4.7943
14.9402,4.7943
14.9443,4.8010
15.0323,4.9437
15.0732,4.9846
15.1130,5.0243
15.1464,5.0857
15.1469,5.1362
15.1422,5.1598
15.1345,5.1985
15.1345,5.3415
15.1345,5.3415
15.1345,5.3415
15.1624,5.4816
15.1624,5.4816
15.2171,5.6136
15.2171,5.6137
15.2965,5.7325
15.2965,5.7325
15.3975,5.8335
15.3975,5.8335
15.5163,5.9129
15.5163,5.9129
15.5163,5.9129
15.6484,5.9676
15.6484,5.9676
15.6484,5.9676
15.7885,5.9955
15.7885,5.9955
15.9315,5.9955
16.0258,5.9767
16.0716,5.9676
16.2037,5.9129
16.3225,5.8335
16.4235,5.7325
16.5029,5.6137
16.5576,5.4816
16.5855,5.3415
16.5855,5.2539
16.5879,5.2297
16.5880,5.2291
16.5880,5.2291
16.5888,5.2252
16.6212,5.1632
16.6453,5.1438
16.7687,5.0677
16.8927,4.9437
16.8948,4.9403
16.8967,4.9386
16.8972,4.9380
16.8973,4.9381
16.9467,4.8936
17.0157,4.8824
17.0797,4.9102
17.1058,4.9403
17.1077,4.9433
17.1077,4.9433
17.2317,5.0673
17.3809,5.1594
17.3809,5.1594
17.5473,5.2145
17.5473,5.2145
17.6500,5.2250
17.7875,5.2250
17.7875,5.2250
17.7875,3.7500
18.2875,3.7500
19.1250,3.7500
19.1250,3.4750
19.1250,3.4750
19.1145,3.3723
19.0594,3.2059
19.0594,3.2059
18.9673,3.0567
18.8433,2.9327
18.6941,2.8406
18.6941,2.8406
18.5277,2.7855
18.5277,2.7855
18.4250,2.7750
18.2875,2.7750
18.2875,3.7500
17.7875,3.7500
17.7875,2.7750
17.6500,2.7750
17.6500,2.7750
17.5473,2.7855
17.3809,2.8406
17.3809,2.8406
17.2317,2.9327
17.1077,3.0567
17.1077,3.0567
17.1058,3.0597
17.1040,3.0613
17.1032,3.0623
17.1030,3.0622
17.0539,3.1064
16.9849,3.1176
16.9208,3.0898
16.8948,3.0597
16.8947,3.0596
16.8927,3.0563
16.7687,2.9323
16.6253,2.8439
16.6193,2.8402
16.6193,2.8402
16.5726,2.8247
16.4528,2.7850
16.4528,2.7850
16.3500,2.7745
15.5750,2.7745
15.5750,2.7745
15.4722,2.7850
15.4722,2.7850
15.3057,2.8402
15.3057,2.8402
15.1563,2.9323
15.0323,3.0563
14.9402,3.2057
14.9402,3.2057
14.9401,3.2059
14.8850,3.3722
14.8850,3.3722
14.8850,3.3722
14.8745,3.4750
14.1255,3.4750
14.1150,3.3722
14.0598,3.2057
13.9677,3.0563
13.8437,2.9323
13.7003,2.8439
13.6943,2.8402
13.6943,2.8402
13.6476,2.8247
13.5278,2.7850
13.5278,2.7850
13.4250,2.7745
12.6500,2.7745
12.6500,2.7745
12.5472,2.7850
12.5472,2.7850
12.3807,2.8402
12.3807,2.8402
12.2313,2.9323
12.1073,3.0563
12.1073,3.0563
12.1052,3.0597
12.1032,3.0615
12.1028,3.0620
12.1027,3.0619
12.0533,3.1064
11.9843,3.1176
11.9202,3.0898
11.8942,3.0597
11.8923,3.0567
11.8923,3.0567
11.7683,2.9327
11.6191,2.8406
11.6191,2.8406
11.4527,2.7855
11.4527,2.7855
11.3500,2.7750
11.2125,2.7750
10.7125,2.7750
10.5750,2.7750
10.5750,2.7750
10.4723,2.7855
10.3059,2.8406
10.3059,2.8406
10.1567,2.9327
10.0327,3.0567
9.9406,3.2059
9.9406,3.2059
9.8855,3.3723
9.8855,3.3723
9.8750,3.4750
2.3495,3.4750
2.4321,3.3241
2.4403,3.3111
2.6111,3.0746
2.6208,3.0628
2.8195,2.8494
2.8305,2.8390
3.0580,2.6476
3.0696,2.6390
3.3269,2.4696
3.3387,2.4627
3.6257,2.3164
3.6375,2.3112
3.9521,2.1901
3.9635,2.1864
4.2988,2.0936
4.3097,2.0911
4.6457,2.0303
4.6575,2.0288
4.9598,2.0038
4.9949,2.0009
5.0051,2.0005
23.9985,2.0005
Z" /> 
<path style="fill:#D864FF; fill-opacity:0.4000; stroke:none;fill-rule:evenodd;"
d="M 13.6000,10.4500
13.5810,10.5457
13.5268,10.6268
13.4457,10.6810
13.3500,10.7000
12.6500,10.7000
12.5543,10.6810
12.4732,10.6268
12.4190,10.5457
12.4000,10.4500
12.4000,9.5500
12.4190,9.4543
12.4732,9.3732
12.5543,9.3190
12.6500,9.3000
13.3500,9.3000
13.4457,9.3190
13.5268,9.3732
13.5810,9.4543
13.6000,9.5500
Z" /> 
<path style="fill:#D864FF; fill-opacity:0.4000; stroke:none;fill-rule:evenodd;"
d="M 11.6000,10.4500
11.5810,10.5457
11.5268,10.6268
11.4457,10.6810
11.3500,10.7000
10.6500,10.7000
10.5543,10.6810
10.4732,10.6268
10.4190,10.5457
10.4000,10.4500
10.4000,9.5500
10.4190,9.4543
10.4732,9.3732
10.5543,9.3190
10.6500,9.3000
11.3500,9.3000
11.4457,9.3190
11.5268,9.3732
11.5810,9.4543
11.6000,9.5500
Z" /> 
<path style="fill:#D864FF; fill-opacity:0.4000; stroke:none;fill-rule:evenodd;"
d="M 19.5500,8.6000
19.4543,8.5810
19.3732,8.5268
19.3190,8.4457
19.3000,8.3500
19.3000,7.6500
19.3190,7.5543
19.3732,7.4732
19.4543,7.4190
19.5500,7.4000
20.4500,7.4000
20.5457,7.4190
20.6268,7.4732
20.6810,7.5543
20.7000,7.6500
20.7000,8.3500
20.6810,8.4457
20.6268,8.5268
20.5457,8.5810
20.4500,8.6000
Z" /> 
<path style="fill:#D864FF; fill-opacity:0.4000; stroke:none;fill-rule:evenodd;"
d="M 19.5500,6.6000
19.4543,6.5810
19.3732,6.5268
19.3190,6.4457
19.3000,6.3500
19.3000,5.6500
19.3190,5.5543
19.3732,5.4732
19.4543,5.4190
19.5500,5.4000
20.4500,5.4000
20.5457,5.4190
20.6268,5.4732
20.6810,5.5543
20.7000,5.6500
20.7000,6.3500
20.6810,6.4457
20.6268,6.5268
20.5457,6.5810
20.4500,6.6000
Z" /> 
<path style="fill:#D864FF; fill-opacity:0.4000; stroke:none;fill-rule:evenodd;"
d="M 13.6250,4.4750
13.6060,4.5707
13.5518,4.6518
13.4707,4.7060
13.3750,4.7250
12.7000,4.7250
12.6043,4.7060
12.5232,4.6518
12.4690,4.5707
12.4500,4.4750
12.4500,3.5250
12.4690,3.4293
12.5232,3.3482
12.6043,3.2940
12.7000,3.2750
13.3750,3.2750
13.4707,3.2940
13.5518,3.3482
13.6060,3.4293
13.6250,3.5250
Z" /> 
<path style="fill:#D864FF; fill-opacity:0.4000; stroke:none;fill-rule:evenodd;"
d="M 11.5500,4.4750
11.5310,4.5707
11.4768,4.6518
11.3957,4.7060
11.3000,4.7250
10.6250,4.7250
10.5293,4.7060
10.4482,4.6518
10.3940,4.5707
10.3750,4.4750
10.3750,3.5250
10.3940,3.4293
10.4482,3.3482
10.5293,3.2940
10.6250,3.2750
11.3000,3.2750
11.3957,3.2940
11.4768,3.3482
11.5310,3.4293
11.5500,3.5250
Z" /> 
<path style="fill:#D864FF; fill-opacity:0.4000; stroke:none;fill-rule:evenodd;"
d="M 11.2300,25.8500
9.5300,25.8500
9.5300,24.1500
11.2300,24.1500
Z" /> 
</g>
<g style="fill:#D864FF; fill-opacity:0.4000; stroke:none;">
<circle cx="12.9200" cy="25.0000" r="0.8500" /> 
</g>
<g style="fill:#D864FF; fill-opacity:0.4000; stroke:none;">
<circle cx="15.4600" cy="25.0000" r="0.8500" /> 
</g>
<g style="fill:#D864FF; fill-opacity:0.4000; stroke:none;">
<circle cx="18.0000" cy="25.0000" r="0.8500" /> 
<path style="fill:#D864FF; fill-opacity:0.4000; stroke:none;fill-rule:evenodd;"
d="M 8.5500,8.6000
8.4543,8.5810
8.3732,8.5268
8.3190,8.4457
8.3000,8.3500
8.3000,7.6500
8.3190,7.5543
8.3732,7.4732
8.4543,7.4190
8.5500,7.4000
9.4500,7.4000
9.5457,7.4190
9.6268,7.4732
9.6810,7.5543
9.7000,7.6500
9.7000,8.3500
9.6810,8.4457
9.6268,8.5268
9.5457,8.5810
9.4500,8.6000
Z" /> 
<path style="fill:#D864FF; fill-opacity:0.4000; stroke:none;fill-rule:evenodd;"
d="M 8.5500,6.6000
8.4543,6.5810
8.3732,6.5268
8.3190,6.4457
8.3000,6.3500
8.3000,5.6500
8.3190,5.5543
8.3732,5.4732
8.4543,5.4190
8.5500,5.4000
9.4500,5.4000
9.5457,5.4190
9.6268,5.4732
9.6810,5.5543
9.7000,5.6500
9.7000,6.3500
9.6810,6.4457
9.6268,6.5268
9.5457,6.5810
9.4500,6.6000
Z" /> 
<path style="fill:#D864FF; fill-opacity:0.4000; stroke:none;fill-rule:evenodd;"
d="M 15.4000,9.5500
15.4190,9.4543
15.4732,9.3732
15.5543,9.3190
15.6500,9.3000
16.3500,9.3000
16.4457,9.3190
16.5268,9.3732
16.5810,9.4543
16.6000,9.5500
16.6000,10.4500
16.5810,10.5457
16.5268,10.6268
16.4457,10.6810
16.3500,10.7000
15.6500,10.7000
15.5543,10.6810
15.4732,10.6268
15.4190,10.5457
15.4000,10.4500
Z" /> 
<path style="fill:#D864FF; fill-opacity:0.4000; stroke:none;fill-rule:evenodd;"
d="M 17.4000,9.5500
17.4190,9.4543
17.4732,9.3732
17.5543,9.3190
17.6500,9.3000
18.3500,9.3000
18.4457,9.3190
18.5268,9.3732
18.5810,9.4543
18.6000,9.5500
18.6000,10.4500
18.5810,10.5457
18.5268,10.6268
18.4457,10.6810
18.3500,10.7000
17.6500,10.7000
17.5543,10.6810
17.4732,10.6268
17.4190,10.5457
17.4000,10.4500
Z" /> 
<path style="fill:#D864FF; fill-opacity:0.4000; stroke:none;fill-rule:evenodd;"
d="M 15.3750,3.5250
15.3940,3.4293
15.4482,3.3482
15.5293,3.2940
15.6250,3.2750
16.3000,3.2750
16.3957,3.2940
16.4768,3.3482
16.5310,3.4293
16.5500,3.5250
16.5500,4.4750
16.5310,4.5707
16.4768,4.6518
16.3957,4.7060
16.3000,4.7250
15.6250,4.7250
15.5293,4.7060
15.4482,4.6518
15.3940,4.5707
15.3750,4.4750
Z" /> 
<path style="fill:#D864FF; fill-opacity:0.4000; stroke:none;fill-rule:evenodd;"
d="M 17.4500,3.5250
17.4690,3.4293
17.5232,3.3482
17.6043,3.2940
17.7000,3.2750
18.3750,3.2750
18.4707,3.2940
18.5518,3.3482
18.6060,3.4293
18.6250,3.5250
18.6250,4.4750
18.6060,4.5707
18.5518,4.6518
18.4707,4.7060
18.3750,4.7250
17.7000,4.7250
17.6043,4.7060
17.5232,4.6518
17.4690,4.5707
17.4500,4.4750
Z" /> 
<path style="fill:#D864FF; fill-opacity:0.4000; stroke:none;fill-rule:evenodd;"
d="M 22.4750,23.4125
22.5707,23.4315
22.6518,23.4857
22.7060,23.5668
22.7250,23.6625
22.7250,24.3375
22.7060,24.4332
22.6518,24.5143
22.5707,24.5685
22.4750,24.5875
21.5250,24.5875
21.4293,24.5685
21.3482,24.5143
21.2940,24.4332
21.2750,24.3375
21.2750,23.6625
21.2940,23.5668
21.3482,23.4857
21.4293,23.4315
21.5250,23.4125
Z" /> 
<path style="fill:#D864FF; fill-opacity:0.4000; stroke:none;fill-rule:evenodd;"
d="M 22.4750,25.4875
22.5707,25.5065
22.6518,25.5607
22.7060,25.6418
22.7250,25.7375
22.7250,26.4125
22.7060,26.5082
22.6518,26.5893
22.5707,26.6435
22.4750,26.6625
21.5250,26.6625
21.4293,26.6435
21.3482,26.5893
21.2940,26.5082
21.2750,26.4125
21.2750,25.7375
21.2940,25.6418
21.3482,25.5607
21.4293,25.5065
21.5250,25.4875
Z" /> 
</g>
<g style="fill:none; 
stroke:#F2EDA1; stroke-width:0.2000; stroke-opacity:1; 
stroke-linecap:round; stroke-linejoin:round;">
<path d="M16.2500 8.5000
L12.7500 8.5000
" />
</g>
<g style="fill:none; 
stroke:#F2EDA1; stroke-width:0.3651; stroke-opacity:1; 
stroke-linecap:round; stroke-linejoin:round;">
<path d="M13.6542 6.2881
L14.4479 7.8756
" />
</g>
<g style="fill:none; 
stroke:#F2EDA1; stroke-width:0.2000; stroke-opacity:1; 
stroke-linecap:round; stroke-linejoin:round;">
<path d="M16.7500 6.2500
L16.7500 8.0000
" />
<path style="fill:none; 
stroke:#F2EDA1; stroke-width:0.3651; stroke-opacity:1; 
stroke-linecap:round; stroke-linejoin:round;fill:none"
d="M 15.4374,6.2890
15.4739,6.2918
15.5098,6.2963
15.5451,6.3026
15.5798,6.3107
15.6137,6.3205
15.6470,6.3320
15.6795,6.3451
15.7112,6.3599
15.7420,6.3762
15.7719,6.3942
15.8009,6.4136
15.8289,6.4346
15.8558,6.4571
15.8817,6.4810
15.9065,6.5064
15.9301,6.5331
15.9524,6.5612
15.9736,6.5906
15.9934,6.6214
16.0119,6.6534
16.0291,6.6867
16.0448,6.7212
16.0590,6.7569
16.0717,6.7937
16.0829,6.8317
16.0925,6.8708
16.1004,6.9110
16.1066,6.9522
16.1112,6.9944
16.1139,7.0376
16.1148,7.0818
16.1139,7.1260
16.1112,7.1692
16.1066,7.2115
16.1004,7.2527
16.0925,7.2928
16.0829,7.3319
16.0717,7.3699
16.0590,7.4068
16.0448,7.4425
16.0291,7.4770
16.0119,7.5102
15.9934,7.5423
15.9736,7.5730
15.9524,7.6025
15.9301,7.6306
15.9065,7.6573
15.8817,7.6826
15.8558,7.7066
15.8289,7.7290
15.8009,7.7500
15.7719,7.7695
15.7420,7.7874
15.7112,7.8038
15.6795,7.8185
15.6470,7.8317
15.6137,7.8431
15.5798,7.8529
15.5451,7.8610
15.5098,7.8673
15.4739,7.8719
15.4374,7.8746
15.4004,7.8756
15.3635,7.8746
15.3270,7.8719
15.2911,7.8673
15.2558,7.8610
15.2211,7.8529
15.1871,7.8431
15.1539,7.8317
15.1214,7.8185
15.0897,7.8038
15.0589,7.7874
15.0290,7.7695
15.0000,7.7500
14.9720,7.7290
14.9451,7.7066
14.9192,7.6826
14.8944,7.6573
14.8708,7.6306
14.8484,7.6025
14.8273,7.5730
14.8075,7.5423
14.7889,7.5102
14.7718,7.4770
14.7561,7.4425
14.7419,7.4068
14.7292,7.3699
14.7180,7.3319
14.7084,7.2928
14.7005,7.2527
14.6942,7.2115
14.6897,7.1692
14.6870,7.1260
14.6861,7.0818
14.6870,7.0376
14.6897,6.9944
14.6942,6.9522
14.7005,6.9110
14.7084,6.8708
14.7180,6.8317
14.7292,6.7937
14.7419,6.7569
14.7561,6.7212
14.7718,6.6867
14.7889,6.6534
14.8075,6.6214
14.8273,6.5906
14.8484,6.5612
14.8708,6.5331
14.8944,6.5064
14.9192,6.4810
14.9451,6.4571
14.9720,6.4346
15.0000,6.4136
15.0290,6.3942
15.0589,6.3762
15.0897,6.3599
15.1214,6.3451
15.1539,6.3320
15.1871,6.3205
15.2211,6.3107
15.2558,6.3026
15.2911,6.2963
15.3270,6.2918
15.3635,6.2890
15.4004,6.2881
Z" /> 
</g>
<g style="fill:none; 
stroke:#F2EDA1; stroke-width:0.2000; stroke-opacity:1; 
stroke-linecap:round; stroke-linejoin:round;">
<path d="M12.7500,8.5000 C12.2500,8.5000 12.2500,8.0000 12.2500,8.0000" />
<path d="M12.2500 8.0000
L12.2500 6.2500
" />
</g>
<g style="fill:none; 
stroke:#F2EDA1; stroke-width:0.3651; stroke-opacity:1; 
stroke-linecap:round; stroke-linejoin:round;">
<path d="M12.8604 7.8756
L13.6542 6.2881
" />
</g>
<g style="fill:none; 
stroke:#F2EDA1; stroke-width:0.2000; stroke-opacity:1; 
stroke-linecap:round; stroke-linejoin:round;">
<path d="M16.7500,8.0000 C16.7500,8.5000 16.2500,8.5000 16.2500,8.5000" />
<path d="M16.2500,5.7500 C16.7500,5.7500 16.7500,6.2500 16.7500,6.2500" />
</g>
<g style="fill:none; 
stroke:#F2EDA1; stroke-width:0.3651; stroke-opacity:1; 
stroke-linecap:round; stroke-linejoin:round;">
<path d="M15.0829 7.0818
L15.7179 7.0818
" />
</g>
<g style="fill:none; 
stroke:#F2EDA1; stroke-width:0.2000; stroke-opacity:1; 
stroke-linecap:round; stroke-linejoin:round;">
<path d="M12.7500 5.7500
L16.2500 5.7500
" />
<path d="M12.2500,6.2500 C12.2500,5.7500 12.7500,5.7500 12.7500,5.7500" />
</g>
<g style="fill:none; 
stroke:#F2EDA1; stroke-width:0.1500; stroke-opacity:1; 
stroke-linecap:round; stroke-linejoin:round;">
<text x="13.0000" y="23.0000"
textLength="1.2500" font-size="1.3333" lengthAdjust="spacingAndGlyphs"
text-anchor="middle" opacity="0" stroke-opacity="0">B</text>
<g class="stroked-text"><desc>B</desc>
<path d="M13.0714 22.3460
L13.2143 22.3936
" />
<path d="M13.2143 22.3936
L13.2619 22.4412
" />
<path d="M13.2619 22.4412
L13.3095 22.5365
" />
<path d="M13.3095 22.5365
L13.3095 22.6793
" />
<path d="M13.3095 22.6793
L13.2619 22.7746
" />
<path d="M13.2619 22.7746
L13.2143 22.8222
" />
<path d="M13.2143 22.8222
L13.1190 22.8698
" />
<path d="M13.1190 22.8698
L12.7381 22.8698
" />
<path d="M12.7381 22.8698
L12.7381 21.8698
" />
<path d="M12.7381 21.8698
L13.0714 21.8698
" />
<path d="M13.0714 21.8698
L13.1667 21.9174
" />
<path d="M13.1667 21.9174
L13.2143 21.9651
" />
<path d="M13.2143 21.9651
L13.2619 22.0603
" />
<path d="M13.2619 22.0603
L13.2619 22.1555
" />
<path d="M13.2619 22.1555
L13.2143 22.2508
" />
<path d="M13.2143 22.2508
L13.1667 22.2984
" />
<path d="M13.1667 22.2984
L13.0714 22.3460
" />
<path d="M13.0714 22.3460
L12.7381 22.3460
" />
</g><text x="18.0000" y="23.0000"
textLength="2.0595" font-size="1.3333" lengthAdjust="spacingAndGlyphs"
text-anchor="middle" opacity="0" stroke-opacity="0">5V</text>
<g class="stroked-text"><desc>5V</desc>
<path d="M17.8095 21.8698
L17.3333 21.8698
" />
<path d="M17.3333 21.8698
L17.2857 22.3460
" />
<path d="M17.2857 22.3460
L17.3333 22.2984
" />
<path d="M17.3333 22.2984
L17.4286 22.2508
" />
<path d="M17.4286 22.2508
L17.6667 22.2508
" />
<path d="M17.6667 22.2508
L17.7619 22.2984
" />
<path d="M17.7619 22.2984
L17.8095 22.3460
" />
<path d="M17.8095 22.3460
L17.8571 22.4412
" />
<path d="M17.8571 22.4412
L17.8571 22.6793
" />
<path d="M17.8571 22.6793
L17.8095 22.7746
" />
<path d="M17.8095 22.7746
L17.7619 22.8222
" />
<path d="M17.7619 22.8222
L17.6667 22.8698
" />
<path d="M17.6667 22.8698
L17.4286 22.8698
" />
<path d="M17.4286 22.8698
L17.3333 22.8222
" />
<path d="M17.3333 22.8222
L17.2857 22.7746
" />
<path d="M18.1429 21.8698
L18.4762 22.8698
" />
<path d="M18.4762 22.8698
L18.8095 21.8698
" />
</g><text x="10.2500" y="23.0000"
textLength="1.2500" font-size="1.3333" lengthAdjust="spacingAndGlyphs"
text-anchor="middle" opacity="0" stroke-opacity="0">G</text>
<g class="stroked-text"><desc>G</desc>
<path d="M10.5119 21.9174
L10.4167 21.8698
" />
<path d="M10.4167 21.8698
L10.2738 21.8698
" />
<path d="M10.2738 21.8698
L10.1310 21.9174
" />
<path d="M10.1310 21.9174
L10.0357 22.0127
" />
<path d="M10.0357 22.0127
L9.9881 22.1079
" />
<path d="M9.9881 22.1079
L9.9405 22.2984
" />
<path d="M9.9405 22.2984
L9.9405 22.4412
" />
<path d="M9.9405 22.4412
L9.9881 22.6317
" />
<path d="M9.9881 22.6317
L10.0357 22.7270
" />
<path d="M10.0357 22.7270
L10.1310 22.8222
" />
<path d="M10.1310 22.8222
L10.2738 22.8698
" />
<path d="M10.2738 22.8698
L10.3690 22.8698
" />
<path d="M10.3690 22.8698
L10.5119 22.8222
" />
<path d="M10.5119 22.8222
L10.5595 22.7746
" />
<path d="M10.5595 22.7746
L10.5595 22.4412
" />
<path d="M10.5595 22.4412
L10.3690 22.4412
" />
</g><text x="15.5000" y="23.0000"
textLength="1.1071" font-size="1.3333" lengthAdjust="spacingAndGlyphs"
text-anchor="middle" opacity="0" stroke-opacity="0">A</text>
<g class="stroked-text"><desc>A</desc>
<path d="M15.2619 22.5841
L15.7381 22.5841
" />
<path d="M15.1667 22.8698
L15.5000 21.8698
" />
<path d="M15.5000 21.8698
L15.8333 22.8698
" />
</g><text x="12.0000" y="12.5000"
textLength="2.2024" font-size="1.3333" lengthAdjust="spacingAndGlyphs"
text-anchor="middle" opacity="0" stroke-opacity="0">R3</text>
<g class="stroked-text"><desc>R3</desc>
<path d="M11.8333 12.4548
L11.5000 11.9786
" />
<path d="M11.2619 12.4548
L11.2619 11.4548
" />
<path d="M11.2619 11.4548
L11.6429 11.4548
" />
<path d="M11.6429 11.4548
L11.7381 11.5024
" />
<path d="M11.7381 11.5024
L11.7857 11.5501
" />
<path d="M11.7857 11.5501
L11.8333 11.6453
" />
<path d="M11.8333 11.6453
L11.8333 11.7882
" />
<path d="M11.8333 11.7882
L11.7857 11.8834
" />
<path d="M11.7857 11.8834
L11.7381 11.9310
" />
<path d="M11.7381 11.9310
L11.6429 11.9786
" />
<path d="M11.6429 11.9786
L11.2619 11.9786
" />
<path d="M12.1667 11.4548
L12.7857 11.4548
" />
<path d="M12.7857 11.4548
L12.4524 11.8358
" />
<path d="M12.4524 11.8358
L12.5952 11.8358
" />
<path d="M12.5952 11.8358
L12.6905 11.8834
" />
<path d="M12.6905 11.8834
L12.7381 11.9310
" />
<path d="M12.7381 11.9310
L12.7857 12.0262
" />
<path d="M12.7857 12.0262
L12.7857 12.2643
" />
<path d="M12.7857 12.2643
L12.7381 12.3596
" />
<path d="M12.7381 12.3596
L12.6905 12.4072
" />
<path d="M12.6905 12.4072
L12.5952 12.4548
" />
<path d="M12.5952 12.4548
L12.3095 12.4548
" />
<path d="M12.3095 12.4548
L12.2143 12.4072
" />
<path d="M12.2143 12.4072
L12.1667 12.3596
" />
</g><text x="22.2500" y="7.5000"
textLength="2.2024" font-size="1.3333" lengthAdjust="spacingAndGlyphs"
text-anchor="middle" opacity="0" stroke-opacity="0">R2</text>
<g class="stroked-text"><desc>R2</desc>
<path d="M22.0833 7.4548
L21.7500 6.9786
" />
<path d="M21.5119 7.4548
L21.5119 6.4548
" />
<path d="M21.5119 6.4548
L21.8929 6.4548
" />
<path d="M21.8929 6.4548
L21.9881 6.5024
" />
<path d="M21.9881 6.5024
L22.0357 6.5501
" />
<path d="M22.0357 6.5501
L22.0833 6.6453
" />
<path d="M22.0833 6.6453
L22.0833 6.7882
" />
<path d="M22.0833 6.7882
L22.0357 6.8834
" />
<path d="M22.0357 6.8834
L21.9881 6.9310
" />
<path d="M21.9881 6.9310
L21.8929 6.9786
" />
<path d="M21.8929 6.9786
L21.5119 6.9786
" />
<path d="M22.4643 6.5501
L22.5119 6.5024
" />
<path d="M22.5119 6.5024
L22.6071 6.4548
" />
<path d="M22.6071 6.4548
L22.8452 6.4548
" />
<path d="M22.8452 6.4548
L22.9405 6.5024
" />
<path d="M22.9405 6.5024
L22.9881 6.5501
" />
<path d="M22.9881 6.5501
L23.0357 6.6453
" />
<path d="M23.0357 6.6453
L23.0357 6.7405
" />
<path d="M23.0357 6.7405
L22.9881 6.8834
" />
<path d="M22.9881 6.8834
L22.4167 7.4548
" />
<path d="M22.4167 7.4548
L23.0357 7.4548
" />
</g><text x="9.0000" y="4.5000"
textLength="2.2024" font-size="1.3333" lengthAdjust="spacingAndGlyphs"
text-anchor="middle" opacity="0" stroke-opacity="0">C2</text>
<g class="stroked-text"><desc>C2</desc>
<path d="M8.8333 4.3596
L8.7857 4.4072
" />
<path d="M8.7857 4.4072
L8.6429 4.4548
" />
<path d="M8.6429 4.4548
L8.5476 4.4548
" />
<path d="M8.5476 4.4548
L8.4048 4.4072
" />
<path d="M8.4048 4.4072
L8.3095 4.3120
" />
<path d="M8.3095 4.3120
L8.2619 4.2167
" />
<path d="M8.2619 4.2167
L8.2143 4.0262
" />
<path d="M8.2143 4.0262
L8.2143 3.8834
" />
<path d="M8.2143 3.8834
L8.2619 3.6929
" />
<path d="M8.2619 3.6929
L8.3095 3.5977
" />
<path d="M8.3095 3.5977
L8.4048 3.5024
" />
<path d="M8.4048 3.5024
L8.5476 3.4548
" />
<path d="M8.5476 3.4548
L8.6429 3.4548
" />
<path d="M8.6429 3.4548
L8.7857 3.5024
" />
<path d="M8.7857 3.5024
L8.8333 3.5501
" />
<path d="M9.2143 3.5501
L9.2619 3.5024
" />
<path d="M9.2619 3.5024
L9.3571 3.4548
" />
<path d="M9.3571 3.4548
L9.5952 3.4548
" />
<path d="M9.5952 3.4548
L9.6905 3.5024
" />
<path d="M9.6905 3.5024
L9.7381 3.5501
" />
<path d="M9.7381 3.5501
L9.7857 3.6453
" />
<path d="M9.7857 3.6453
L9.7857 3.7405
" />
<path d="M9.7857 3.7405
L9.7381 3.8834
" />
<path d="M9.7381 3.8834
L9.1667 4.4548
" />
<path d="M9.1667 4.4548
L9.7857 4.4548
" />
</g><text x="7.0000" y="25.5000"
textLength="1.9643" font-size="1.3333" lengthAdjust="spacingAndGlyphs"
text-anchor="middle" opacity="0" stroke-opacity="0">J1</text>
<g class="stroked-text"><desc>J1</desc>
<path d="M6.6667 24.4548
L6.6667 25.1691
" />
<path d="M6.6667 25.1691
L6.6190 25.3120
" />
<path d="M6.6190 25.3120
L6.5238 25.4072
" />
<path d="M6.5238 25.4072
L6.3810 25.4548
" />
<path d="M6.3810 25.4548
L6.2857 25.4548
" />
<path d="M7.6667 25.4548
L7.0952 25.4548
" />
<path d="M7.3810 25.4548
L7.3810 24.4548
" />
<path d="M7.3810 24.4548
L7.2857 24.5977
" />
<path d="M7.2857 24.5977
L7.1905 24.6929
" />
<path d="M7.1905 24.6929
L7.0952 24.7405
" />
</g><text x="7.0000" y="7.5000"
textLength="2.2024" font-size="1.3333" lengthAdjust="spacingAndGlyphs"
text-anchor="middle" opacity="0" stroke-opacity="0">R4</text>
<g class="stroked-text"><desc>R4</desc>
<path d="M6.8333 7.4548
L6.5000 6.9786
" />
<path d="M6.2619 7.4548
L6.2619 6.4548
" />
<path d="M6.2619 6.4548
L6.6429 6.4548
" />
<path d="M6.6429 6.4548
L6.7381 6.5024
" />
<path d="M6.7381 6.5024
L6.7857 6.5501
" />
<path d="M6.7857 6.5501
L6.8333 6.6453
" />
<path d="M6.8333 6.6453
L6.8333 6.7882
" />
<path d="M6.8333 6.7882
L6.7857 6.8834
" />
<path d="M6.7857 6.8834
L6.7381 6.9310
" />
<path d="M6.7381 6.9310
L6.6429 6.9786
" />
<path d="M6.6429 6.9786
L6.2619 6.9786
" />
<path d="M7.6905 6.7882
L7.6905 7.4548
" />
<path d="M7.4524 6.4072
L7.2143 7.1215
" />
<path d="M7.2143 7.1215
L7.8333 7.1215
" />
</g><text x="17.0000" y="12.7500"
textLength="2.2024" font-size="1.3333" lengthAdjust="spacingAndGlyphs"
text-anchor="middle" opacity="0" stroke-opacity="0">R1</text>
<g class="stroked-text"><desc>R1</desc>
<path d="M16.8333 12.7048
L16.5000 12.2286
" />
<path d="M16.2619 12.7048
L16.2619 11.7048
" />
<path d="M16.2619 11.7048
L16.6429 11.7048
" />
<path d="M16.6429 11.7048
L16.7381 11.7524
" />
<path d="M16.7381 11.7524
L16.7857 11.8001
" />
<path d="M16.7857 11.8001
L16.8333 11.8953
" />
<path d="M16.8333 11.8953
L16.8333 12.0382
" />
<path d="M16.8333 12.0382
L16.7857 12.1334
" />
<path d="M16.7857 12.1334
L16.7381 12.1810
" />
<path d="M16.7381 12.1810
L16.6429 12.2286
" />
<path d="M16.6429 12.2286
L16.2619 12.2286
" />
<path d="M17.7857 12.7048
L17.2143 12.7048
" />
<path d="M17.5000 12.7048
L17.5000 11.7048
" />
<path d="M17.5000 11.7048
L17.4048 11.8477
" />
<path d="M17.4048 11.8477
L17.3095 11.9429
" />
<path d="M17.3095 11.9429
L17.2143 11.9905
" />
</g><text x="20.0000" y="4.5000"
textLength="2.2024" font-size="1.3333" lengthAdjust="spacingAndGlyphs"
text-anchor="middle" opacity="0" stroke-opacity="0">C1</text>
<g class="stroked-text"><desc>C1</desc>
<path d="M19.8333 4.3596
L19.7857 4.4072
" />
<path d="M19.7857 4.4072
L19.6429 4.4548
" />
<path d="M19.6429 4.4548
L19.5476 4.4548
" />
<path d="M19.5476 4.4548
L19.4048 4.4072
" />
<path d="M19.4048 4.4072
L19.3095 4.3120
" />
<path d="M19.3095 4.3120
L19.2619 4.2167
" />
<path d="M19.2619 4.2167
L19.2143 4.0262
" />
<path d="M19.2143 4.0262
L19.2143 3.8834
" />
<path d="M19.2143 3.8834
L19.2619 3.6929
" />
<path d="M19.2619 3.6929
L19.3095 3.5977
" />
<path d="M19.3095 3.5977
L19.4048 3.5024
" />
<path d="M19.4048 3.5024
L19.5476 3.4548
" />
<path d="M19.5476 3.4548
L19.6429 3.4548
" />
<path d="M19.6429 3.4548
L19.7857 3.5024
" />
<path d="M19.7857 3.5024
L19.8333 3.5501
" />
<path d="M20.7857 4.4548
L20.2143 4.4548
" />
<path d="M20.5000 4.4548
L20.5000 3.4548
" />
<path d="M20.5000 3.4548
L20.4048 3.5977
" />
<path d="M20.4048 3.5977
L20.3095 3.6929
" />
<path d="M20.3095 3.6929
L20.2143 3.7405
" />
</g><text x="24.0000" y="25.5375"
textLength="2.2024" font-size="1.3333" lengthAdjust="spacingAndGlyphs"
text-anchor="middle" opacity="0" stroke-opacity="0">C3</text>
<g class="stroked-text"><desc>C3</desc>
<path d="M23.8333 25.3971
L23.7857 25.4447
" />
<path d="M23.7857 25.4447
L23.6429 25.4923
" />
<path d="M23.6429 25.4923
L23.5476 25.4923
" />
<path d="M23.5476 25.4923
L23.4048 25.4447
" />
<path d="M23.4048 25.4447
L23.3095 25.3495
" />
<path d="M23.3095 25.3495
L23.2619 25.2542
" />
<path d="M23.2619 25.2542
L23.2143 25.0637
" />
<path d="M23.2143 25.0637
L23.2143 24.9209
" />
<path d="M23.2143 24.9209
L23.2619 24.7304
" />
<path d="M23.2619 24.7304
L23.3095 24.6352
" />
<path d="M23.3095 24.6352
L23.4048 24.5399
" />
<path d="M23.4048 24.5399
L23.5476 24.4923
" />
<path d="M23.5476 24.4923
L23.6429 24.4923
" />
<path d="M23.6429 24.4923
L23.7857 24.5399
" />
<path d="M23.7857 24.5399
L23.8333 24.5876
" />
<path d="M24.1667 24.4923
L24.7857 24.4923
" />
<path d="M24.7857 24.4923
L24.4524 24.8733
" />
<path d="M24.4524 24.8733
L24.5952 24.8733
" />
<path d="M24.5952 24.8733
L24.6905 24.9209
" />
<path d="M24.6905 24.9209
L24.7381 24.9685
" />
<path d="M24.7381 24.9685
L24.7857 25.0637
" />
<path d="M24.7857 25.0637
L24.7857 25.3018
" />
<path d="M24.7857 25.3018
L24.7381 25.3971
" />
<path d="M24.7381 25.3971
L24.6905 25.4447
" />
<path d="M24.6905 25.4447
L24.5952 25.4923
" />
<path d="M24.5952 25.4923
L24.3095 25.4923
" />
<path d="M24.3095 25.4923
L24.2143 25.4447
" />
<path d="M24.2143 25.4447
L24.1667 25.3971
" />
</g></g>
<g style="fill:none; 
stroke:#F2EDA1; stroke-width:0.1200; stroke-opacity:1; 
stroke-linecap:round; stroke-linejoin:round;">
<path d="M12.2271 9.2650
L11.7729 9.2650
" />
<path d="M12.2271 10.7350
L11.7729 10.7350
" />
<path d="M19.2650 7.2271
L19.2650 6.7729
" />
<path d="M20.7350 7.2271
L20.7350 6.7729
" />
<path d="M12.2613 3.2650
L11.7387 3.2650
" />
<path d="M12.2613 4.7350
L11.7387 4.7350
" />
<path d="M9.0000 26.3800
L9.0000 25.0000
" />
<path d="M10.3800 26.3800
L9.0000 26.3800
" />
<path d="M11.6500 23.6200
L19.3800 23.6200
" />
<path d="M11.6500 26.3800
L11.6500 23.6200
" />
<path d="M11.6500 26.3800
L19.3800 26.3800
" />
<path d="M19.3800 26.3800
L19.3800 23.6200
" />
<path d="M8.2650 7.2271
L8.2650 6.7729
" />
<path d="M9.7350 7.2271
L9.7350 6.7729
" />
<path d="M16.7729 9.2650
L17.2271 9.2650
" />
<path d="M16.7729 10.7350
L17.2271 10.7350
" />
<path d="M16.7387 3.2650
L17.2613 3.2650
" />
<path d="M16.7387 4.7350
L17.2613 4.7350
" />
<path d="M21.2650 24.7762
L21.2650 25.2988
" />
<path d="M22.7350 24.7762
L22.7350 25.2988
" />
</g>
<g style="fill:none; 
stroke:#D0D2CD; stroke-width:0.1000; stroke-opacity:1; 
stroke-linecap:round; stroke-linejoin:round;">
<path d="M27.0000,24.0000 C27.0000,27.0000 24.0000,27.0000 24.0000,27.0000" />
<path d="M5.0000 2.0000
L24.0000 2.0000
" />
<path d="M27.0000 5.0000
L27.0000 24.0000
" />
<path d="M5.0000,27.0000 C2.0000,27.0000 2.0000,24.0000 2.0000,24.0000" />
<path d="M2.0000 5.0000
L2.0000 24.0000
" />
<path d="M2.0000,5.0000 C2.0000,2.0000 5.0000,2.0000 5.0000,2.0000" />
<path d="M24.0000,2.0000 C27.0000,2.0000 27.0000,5.0000 27.0000,5.0000" />
<path d="M5.0000 27.0000
L24.0000 27.0000
" />
</g>
<g style="fill:#FFFFFF; fill-opacity:1.0000; stroke:none;">
<circle cx="25.5000" cy="15.0000" r="0.1750" /> 
</g>
<g style="fill:#FFFFFF; fill-opacity:1.0000; stroke:none;">
<circle cx="25.5000" cy="13.0000" r="0.1750" /> 
</g>
<g style="fill:#FFFFFF; fill-opacity:1.0000; stroke:none;">
<circle cx="3.5000" cy="17.0000" r="0.1750" /> 
</g>
<g style="fill:#FFFFFF; fill-opacity:1.0000; stroke:none;">
<circle cx="3.5000" cy="21.0000" r="0.1750" /> 
</g>
<g style="fill:#FFFFFF; fill-opacity:1.0000; stroke:none;">
<circle cx="24.0000" cy="21.0000" r="0.1750" /> 
</g>
<g style="fill:#FFFFFF; fill-opacity:1.0000; stroke:none;">
<circle cx="24.0000" cy="23.0000" r="0.1750" /> 
</g>
<g style="fill:#FFFFFF; fill-opacity:1.0000; stroke:none;">
<circle cx="24.0000" cy="19.0000" r="0.1750" /> 
</g>
<g style="fill:#FFFFFF; fill-opacity:1.0000; stroke:none;">
<circle cx="24.0000" cy="5.0000" r="0.1750" /> 
</g>
<g style="fill:#FFFFFF; fill-opacity:1.0000; stroke:none;">
<circle cx="3.5000" cy="11.0000" r="0.1750" /> 
</g>
<g style="fill:#FFFFFF; fill-opacity:1.0000; stroke:none;">
<circle cx="24.0000" cy="17.0000" r="0.1750" /> 
</g>
<g style="fill:#FFFFFF; fill-opacity:1.0000; stroke:none;">
<circle cx="14.5000" cy="16.5000" r="0.1750" /> 
</g>
<g style="fill:#FFFFFF; fill-opacity:1.0000; stroke:none;">
<circle cx="7.0000" cy="26.0000" r="0.1750" /> 
</g>
<g style="fill:#FFFFFF; fill-opacity:1.0000; stroke:none;">
<circle cx="3.5000" cy="5.0000" r="0.1750" /> 
</g>
<g style="fill:#FFFFFF; fill-opacity:1.0000; stroke:none;">
<circle cx="18.7500" cy="9.7500" r="0.1000" /> 
</g>
<g style="fill:#FFFFFF; fill-opacity:1.0000; stroke:none;">
<circle cx="14.5000" cy="19.5000" r="0.1750" /> 
</g>
<g style="fill:#FFFFFF; fill-opacity:1.0000; stroke:none;">
<circle cx="5.0000" cy="23.0000" r="0.1750" /> 
</g>
<g style="fill:#FFFFFF; fill-opacity:1.0000; stroke:none;">
<circle cx="3.5000" cy="7.0000" r="0.1750" /> 
</g>
<g style="fill:#FFFFFF; fill-opacity:1.0000; stroke:none;">
<circle cx="3.5000" cy="9.0000" r="0.1750" /> 
</g>
<g style="fill:#FFFFFF; fill-opacity:1.0000; stroke:none;">
<circle cx="3.5000" cy="19.0000" r="0.1750" /> 
</g>
<g style="fill:#FFFFFF; fill-opacity:1.0000; stroke:none;">
<circle cx="5.0000" cy="15.0000" r="0.1750" /> 
</g>
<g style="fill:#FFFFFF; fill-opacity:1.0000; stroke:none;">
<circle cx="5.0000" cy="17.0000" r="0.1750" /> 
</g>
<g style="fill:#FFFFFF; fill-opacity:1.0000; stroke:none;">
<circle cx="25.5000" cy="5.0000" r="0.1750" /> 
</g>
<g style="fill:#FFFFFF; fill-opacity:1.0000; stroke:none;">
<circle cx="5.0000" cy="11.0000" r="0.1750" /> 
</g>
<g style="fill:#FFFFFF; fill-opacity:1.0000; stroke:none;">
<circle cx="24.0000" cy="7.0000" r="0.1750" /> 
</g>
<g style="fill:#FFFFFF; fill-opacity:1.0000; stroke:none;">
<circle cx="24.0000" cy="9.0000" r="0.1750" /> 
</g>
<g style="fill:#FFFFFF; fill-opacity:1.0000; stroke:none;">
<circle cx="3.5000" cy="15.0000" r="0.1750" /> 
</g>
<g style="fill:#FFFFFF; fill-opacity:1.0000; stroke:none;">
<circle cx="14.5000" cy="13.5000" r="0.1750" /> 
</g>
<g style="fill:#FFFFFF; fill-opacity:1.0000; stroke:none;">
<circle cx="5.0000" cy="19.0000" r="0.1750" /> 
</g>
<g style="fill:#FFFFFF; fill-opacity:1.0000; stroke:none;">
<circle cx="15.0000" cy="8.7500" r="0.1000" /> 
</g>
<g style="fill:#FFFFFF; fill-opacity:1.0000; stroke:none;">
<circle cx="10.2500" cy="9.7500" r="0.1000" /> 
</g>
<g style="fill:#FFFFFF; fill-opacity:1.0000; stroke:none;">
<circle cx="5.0000" cy="5.0000" r="0.1750" /> 
</g>
<g style="fill:#FFFFFF; fill-opacity:1.0000; stroke:none;">
<circle cx="24.0000" cy="13.0000" r="0.1750" /> 
</g>
<g style="fill:#FFFFFF; fill-opacity:1.0000; stroke:none;">
<circle cx="18.7400" cy="4.3300" r="0.1000" /> 
</g>
<g style="fill:#FFFFFF; fill-opacity:1.0000; stroke:none;">
<circle cx="25.5000" cy="19.0000" r="0.1750" /> 
</g>
<g style="fill:#FFFFFF; fill-opacity:1.0000; stroke:none;">
<circle cx="5.0000" cy="9.0000" r="0.1750" /> 
</g>
<g style="fill:#FFFFFF; fill-opacity:1.0000; stroke:none;">
<circle cx="11.7500" cy="7.2500" r="0.1000" /> 
</g>
<g style="fill:#FFFFFF; fill-opacity:1.0000; stroke:none;">
<circle cx="5.0000" cy="21.0000" r="0.1750" /> 
</g>
<g style="fill:#FFFFFF; fill-opacity:1.0000; stroke:none;">
<circle cx="25.5000" cy="17.0000" r="0.1750" /> 
</g>
<g style="fill:#FFFFFF; fill-opacity:1.0000; stroke:none;">
<circle cx="25.5000" cy="11.0000" r="0.1750" /> 
</g>
<g style="fill:#FFFFFF; fill-opacity:1.0000; stroke:none;">
<circle cx="24.0000" cy="11.0000" r="0.1750" /> 
</g>
<g style="fill:#FFFFFF; fill-opacity:1.0000; stroke:none;">
<circle cx="11.7500" cy="7.9500" r="0.1000" /> 
</g>
<g style="fill:#FFFFFF; fill-opacity:1.0000; stroke:none;">
<circle cx="10.2600" cy="3.7100" r="0.1000" /> 
</g>
<g style="fill:#FFFFFF; fill-opacity:1.0000; stroke:none;">
<circle cx="8.5000" cy="24.0000" r="0.1750" /> 
</g>
<g style="fill:#FFFFFF; fill-opacity:1.0000; stroke:none;">
<circle cx="25.5000" cy="23.0000" r="0.1750" /> 
</g>
<g style="fill:#FFFFFF; fill-opacity:1.0000; stroke:none;">
<circle cx="10.2500" cy="4.3400" r="0.1000" /> 
</g>
<g style="fill:#FFFFFF; fill-opacity:1.0000; stroke:none;">
<circle cx="5.0000" cy="13.0000" r="0.1750" /> 
</g>
<g style="fill:#FFFFFF; fill-opacity:1.0000; stroke:none;">
<circle cx="18.7400" cy="3.6000" r="0.1000" /> 
</g>
<g style="fill:#FFFFFF; fill-opacity:1.0000; stroke:none;">
<circle cx="7.0000" cy="24.0000" r="0.1750" /> 
</g>
<g style="fill:#FFFFFF; fill-opacity:1.0000; stroke:none;">
<circle cx="25.5000" cy="21.0000" r="0.1750" /> 
</g>
<g style="fill:#FFFFFF; fill-opacity:1.0000; stroke:none;">
<circle cx="18.7500" cy="10.2500" r="0.1000" /> 
</g>
<g style="fill:#FFFFFF; fill-opacity:1.0000; stroke:none;">
<circle cx="8.5000" cy="26.0000" r="0.1750" /> 
</g>
<g style="fill:#FFFFFF; fill-opacity:1.0000; stroke:none;">
<circle cx="10.2500" cy="10.2500" r="0.1000" /> 
</g>
<g style="fill:#FFFFFF; fill-opacity:1.0000; stroke:none;">
<circle cx="25.5000" cy="7.0000" r="0.1750" /> 
</g>
<g style="fill:#FFFFFF; fill-opacity:1.0000; stroke:none;">
<circle cx="3.5000" cy="23.0000" r="0.1750" /> 
</g>
<g style="fill:#FFFFFF; fill-opacity:1.0000; stroke:none;">
<circle cx="3.5000" cy="13.0000" r="0.1750" /> 
</g>
<g style="fill:#FFFFFF; fill-opacity:1.0000; stroke:none;">
<circle cx="15.7500" cy="8.7500" r="0.1000" /> 
</g>
<g style="fill:#FFFFFF; fill-opacity:1.0000; stroke:none;">
<circle cx="25.5000" cy="9.0000" r="0.1750" /> 
</g>
<g style="fill:#FFFFFF; fill-opacity:1.0000; stroke:none;">
<circle cx="24.0000" cy="15.0000" r="0.1750" /> 
</g>
<g style="fill:#FFFFFF; fill-opacity:1.0000; stroke:none;">
<circle cx="5.0000" cy="7.0000" r="0.1750" /> 
</g>
<g style="fill:#FFFFFF; fill-opacity:1.0000; stroke:none;">
<circle cx="18.9150" cy="7.6650" r="0.1000" /> 
</g>
<g style="fill:#FFFFFF; fill-opacity:1.0000; stroke:none;">
<circle cx="10.0000" cy="8.5000" r="0.1000" /> 
</g>
<g style="fill:#FFFFFF; fill-opacity:1.0000; stroke:none;">
<circle cx="17.2500" cy="6.7500" r="0.1000" /> 
</g>
<g style="fill:#FFFFFF; fill-opacity:1.0000; stroke:none;">
<circle cx="20.5000" cy="23.9625" r="0.1750" /> 
</g>
<g style="fill:#FFFFFF; fill-opacity:1.0000; stroke:none;">
<circle cx="15.8600" cy="5.2700" r="0.1000" /> 
</g>
<g style="fill:#FFFFFF; fill-opacity:1.0000; stroke:none;">
<circle cx="21.2500" cy="6.0000" r="0.1000" /> 
</g>
<g style="fill:#FFFFFF; fill-opacity:1.0000; stroke:none;">
<circle cx="7.7500" cy="6.0000" r="0.1000" /> 
</g>
<g style="fill:#FFFFFF; fill-opacity:1.0000; stroke:none;">
<circle cx="12.9300" cy="5.2699" r="0.1000" /> 
</g>
<g style="fill:#FFFFFF; fill-opacity:1.0000; stroke:none;">
<circle cx="13.7500" cy="9.2500" r="0.1000" /> 
</g>
<g style="fill:#FFFFFF; fill-opacity:1.0000; stroke:none;">
<circle cx="10.3800" cy="25.0000" r="0.1750" /> 
</g>
<g style="fill:#FFFFFF; fill-opacity:1.0000; stroke:none;">
<circle cx="12.9200" cy="25.0000" r="0.1750" /> 
</g>
<g style="fill:#FFFFFF; fill-opacity:1.0000; stroke:none;">
<circle cx="15.4600" cy="25.0000" r="0.1750" /> 
</g>
<g style="fill:#FFFFFF; fill-opacity:1.0000; stroke:none;">
<circle cx="18.0000" cy="25.0000" r="0.1750" /> 
</g> 
</svg>
