<?xml version="1.0" standalone="no"?>
 <!DOCTYPE svg PUBLIC "-//W3C//DTD SVG 1.1//EN" 
 "http://www.w3.org/Graphics/SVG/1.1/DTD/svg11.dtd"> 
<svg
  xmlns:svg="http://www.w3.org/2000/svg"
  xmlns="http://www.w3.org/2000/svg"
  xmlns:xlink="http://www.w3.org/1999/xlink"
  version="1.1"
  width="1280" height="1280" viewBox="0.0000 0.0000 28.9814 28.9814">
<title>SVG Image created as encoder-board-B_Cu.svg date 2025/11/29 15:08:29 </title>
  <desc>Image generated by PCBNEW </desc>
<g style="fill:#000000; fill-opacity:1.0000;stroke:#000000; stroke-opacity:1.0000;
stroke-linecap:round; stroke-linejoin:round;"
 transform="translate(0 0) scale(1 1)">
<path style="fill:#4D7FC4; fill-opacity:1.0000; stroke:none;fill-rule:evenodd;"
d="M 11.2300,25.8500
9.5300,25.8500
9.5300,24.1500
11.2300,24.1500
Z" /> 
</g>
<g style="fill:#4D7FC4; fill-opacity:1.0000; stroke:none;">
<circle cx="12.9200" cy="25.0000" r="0.8500" /> 
</g>
<g style="fill:#4D7FC4; fill-opacity:1.0000; stroke:none;">
<circle cx="15.4600" cy="25.0000" r="0.8500" /> 
</g>
<g style="fill:#4D7FC4; fill-opacity:1.0000; stroke:none;">
<circle cx="18.0000" cy="25.0000" r="0.8500" /> 
<path style="fill:#4D7FC4; fill-opacity:1.0000; stroke:none;fill-rule:evenodd;"
d="M 15.3249,5.9350
15.8750,5.9350
15.8750,6.7350
15.3249,6.7350
Z" /> 
<path style="fill:#4D7FC4; fill-opacity:1.0000; stroke:none;fill-rule:evenodd;"
d="M 16.1250,5.9350
16.6751,5.9350
16.6751,6.7350
16.1250,6.7350
Z" /> 
<path style="fill:#4D7FC4; fill-opacity:1.0000; stroke:none;fill-rule:evenodd;"
d="M 16.1250,7.2650
16.6751,7.2650
16.6751,8.0650
16.1250,8.0650
Z" /> 
<path style="fill:#4D7FC4; fill-opacity:1.0000; stroke:none;fill-rule:evenodd;"
d="M 15.3252,7.2650
15.8752,7.2650
15.8752,8.0650
15.3252,8.0650
Z" /> 
<path style="fill:#4D7FC4; fill-opacity:1.0000; stroke:none;fill-rule:evenodd;"
d="M 12.3249,5.9350
12.8750,5.9350
12.8750,6.7350
12.3249,6.7350
Z" /> 
<path style="fill:#4D7FC4; fill-opacity:1.0000; stroke:none;fill-rule:evenodd;"
d="M 13.1250,5.9350
13.6751,5.9350
13.6751,6.7350
13.1250,6.7350
Z" /> 
<path style="fill:#4D7FC4; fill-opacity:1.0000; stroke:none;fill-rule:evenodd;"
d="M 13.1250,7.2650
13.6751,7.2650
13.6751,8.0650
13.1250,8.0650
Z" /> 
<path style="fill:#4D7FC4; fill-opacity:1.0000; stroke:none;fill-rule:evenodd;"
d="M 12.3252,7.2650
12.8752,7.2650
12.8752,8.0650
12.3252,8.0650
Z" /> 
</g>
<g style="fill:#4D7FC4; fill-opacity:1.0000; stroke:none;">
<circle cx="25.5000" cy="15.0000" r="0.4000" /> 
</g>
<g style="fill:#4D7FC4; fill-opacity:1.0000; stroke:none;">
<circle cx="25.5000" cy="13.0000" r="0.4000" /> 
</g>
<g style="fill:#4D7FC4; fill-opacity:1.0000; stroke:none;">
<circle cx="3.5000" cy="17.0000" r="0.4000" /> 
</g>
<g style="fill:#4D7FC4; fill-opacity:1.0000; stroke:none;">
<circle cx="3.5000" cy="21.0000" r="0.4000" /> 
</g>
<g style="fill:#4D7FC4; fill-opacity:1.0000; stroke:none;">
<circle cx="24.0000" cy="21.0000" r="0.4000" /> 
</g>
<g style="fill:#4D7FC4; fill-opacity:1.0000; stroke:none;">
<circle cx="24.0000" cy="23.0000" r="0.4000" /> 
</g>
<g style="fill:#4D7FC4; fill-opacity:1.0000; stroke:none;">
<circle cx="24.0000" cy="19.0000" r="0.4000" /> 
</g>
<g style="fill:#4D7FC4; fill-opacity:1.0000; stroke:none;">
<circle cx="24.0000" cy="5.0000" r="0.4000" /> 
</g>
<g style="fill:#4D7FC4; fill-opacity:1.0000; stroke:none;">
<circle cx="3.5000" cy="11.0000" r="0.4000" /> 
</g>
<g style="fill:#4D7FC4; fill-opacity:1.0000; stroke:none;">
<circle cx="24.0000" cy="17.0000" r="0.4000" /> 
</g>
<g style="fill:#4D7FC4; fill-opacity:1.0000; stroke:none;">
<circle cx="14.5000" cy="16.5000" r="0.4000" /> 
</g>
<g style="fill:#4D7FC4; fill-opacity:1.0000; stroke:none;">
<circle cx="7.0000" cy="26.0000" r="0.4000" /> 
</g>
<g style="fill:#4D7FC4; fill-opacity:1.0000; stroke:none;">
<circle cx="3.5000" cy="5.0000" r="0.4000" /> 
</g>
<g style="fill:#4D7FC4; fill-opacity:1.0000; stroke:none;">
<circle cx="18.7500" cy="9.7500" r="0.2250" /> 
</g>
<g style="fill:#4D7FC4; fill-opacity:1.0000; stroke:none;">
<circle cx="14.5000" cy="19.5000" r="0.4000" /> 
</g>
<g style="fill:#4D7FC4; fill-opacity:1.0000; stroke:none;">
<circle cx="5.0000" cy="23.0000" r="0.4000" /> 
</g>
<g style="fill:#4D7FC4; fill-opacity:1.0000; stroke:none;">
<circle cx="3.5000" cy="7.0000" r="0.4000" /> 
</g>
<g style="fill:#4D7FC4; fill-opacity:1.0000; stroke:none;">
<circle cx="3.5000" cy="9.0000" r="0.4000" /> 
</g>
<g style="fill:#4D7FC4; fill-opacity:1.0000; stroke:none;">
<circle cx="3.5000" cy="19.0000" r="0.4000" /> 
</g>
<g style="fill:#4D7FC4; fill-opacity:1.0000; stroke:none;">
<circle cx="5.0000" cy="15.0000" r="0.4000" /> 
</g>
<g style="fill:#4D7FC4; fill-opacity:1.0000; stroke:none;">
<circle cx="5.0000" cy="17.0000" r="0.4000" /> 
</g>
<g style="fill:#4D7FC4; fill-opacity:1.0000; stroke:none;">
<circle cx="25.5000" cy="5.0000" r="0.4000" /> 
</g>
<g style="fill:#4D7FC4; fill-opacity:1.0000; stroke:none;">
<circle cx="5.0000" cy="11.0000" r="0.4000" /> 
</g>
<g style="fill:#4D7FC4; fill-opacity:1.0000; stroke:none;">
<circle cx="24.0000" cy="7.0000" r="0.4000" /> 
</g>
<g style="fill:#4D7FC4; fill-opacity:1.0000; stroke:none;">
<circle cx="24.0000" cy="9.0000" r="0.4000" /> 
</g>
<g style="fill:#4D7FC4; fill-opacity:1.0000; stroke:none;">
<circle cx="3.5000" cy="15.0000" r="0.4000" /> 
</g>
<g style="fill:#4D7FC4; fill-opacity:1.0000; stroke:none;">
<circle cx="14.5000" cy="13.5000" r="0.4000" /> 
</g>
<g style="fill:#4D7FC4; fill-opacity:1.0000; stroke:none;">
<circle cx="5.0000" cy="19.0000" r="0.4000" /> 
</g>
<g style="fill:#4D7FC4; fill-opacity:1.0000; stroke:none;">
<circle cx="15.0000" cy="8.7500" r="0.2250" /> 
</g>
<g style="fill:#4D7FC4; fill-opacity:1.0000; stroke:none;">
<circle cx="10.2500" cy="9.7500" r="0.2250" /> 
</g>
<g style="fill:#4D7FC4; fill-opacity:1.0000; stroke:none;">
<circle cx="5.0000" cy="5.0000" r="0.4000" /> 
</g>
<g style="fill:#4D7FC4; fill-opacity:1.0000; stroke:none;">
<circle cx="24.0000" cy="13.0000" r="0.4000" /> 
</g>
<g style="fill:#4D7FC4; fill-opacity:1.0000; stroke:none;">
<circle cx="18.7400" cy="4.3300" r="0.2250" /> 
</g>
<g style="fill:#4D7FC4; fill-opacity:1.0000; stroke:none;">
<circle cx="25.5000" cy="19.0000" r="0.4000" /> 
</g>
<g style="fill:#4D7FC4; fill-opacity:1.0000; stroke:none;">
<circle cx="5.0000" cy="9.0000" r="0.4000" /> 
</g>
<g style="fill:#4D7FC4; fill-opacity:1.0000; stroke:none;">
<circle cx="11.7500" cy="7.2500" r="0.2250" /> 
</g>
<g style="fill:#4D7FC4; fill-opacity:1.0000; stroke:none;">
<circle cx="5.0000" cy="21.0000" r="0.4000" /> 
</g>
<g style="fill:#4D7FC4; fill-opacity:1.0000; stroke:none;">
<circle cx="25.5000" cy="17.0000" r="0.4000" /> 
</g>
<g style="fill:#4D7FC4; fill-opacity:1.0000; stroke:none;">
<circle cx="25.5000" cy="11.0000" r="0.4000" /> 
</g>
<g style="fill:#4D7FC4; fill-opacity:1.0000; stroke:none;">
<circle cx="24.0000" cy="11.0000" r="0.4000" /> 
</g>
<g style="fill:#4D7FC4; fill-opacity:1.0000; stroke:none;">
<circle cx="11.7500" cy="7.9500" r="0.2250" /> 
</g>
<g style="fill:#4D7FC4; fill-opacity:1.0000; stroke:none;">
<circle cx="10.2600" cy="3.7100" r="0.2250" /> 
</g>
<g style="fill:#4D7FC4; fill-opacity:1.0000; stroke:none;">
<circle cx="8.5000" cy="24.0000" r="0.4000" /> 
</g>
<g style="fill:#4D7FC4; fill-opacity:1.0000; stroke:none;">
<circle cx="25.5000" cy="23.0000" r="0.4000" /> 
</g>
<g style="fill:#4D7FC4; fill-opacity:1.0000; stroke:none;">
<circle cx="10.2500" cy="4.3400" r="0.2250" /> 
</g>
<g style="fill:#4D7FC4; fill-opacity:1.0000; stroke:none;">
<circle cx="5.0000" cy="13.0000" r="0.4000" /> 
</g>
<g style="fill:#4D7FC4; fill-opacity:1.0000; stroke:none;">
<circle cx="18.7400" cy="3.6000" r="0.2250" /> 
</g>
<g style="fill:#4D7FC4; fill-opacity:1.0000; stroke:none;">
<circle cx="7.0000" cy="24.0000" r="0.4000" /> 
</g>
<g style="fill:#4D7FC4; fill-opacity:1.0000; stroke:none;">
<circle cx="25.5000" cy="21.0000" r="0.4000" /> 
</g>
<g style="fill:#4D7FC4; fill-opacity:1.0000; stroke:none;">
<circle cx="18.7500" cy="10.2500" r="0.2250" /> 
</g>
<g style="fill:#4D7FC4; fill-opacity:1.0000; stroke:none;">
<circle cx="8.5000" cy="26.0000" r="0.4000" /> 
</g>
<g style="fill:#4D7FC4; fill-opacity:1.0000; stroke:none;">
<circle cx="10.2500" cy="10.2500" r="0.2250" /> 
</g>
<g style="fill:#4D7FC4; fill-opacity:1.0000; stroke:none;">
<circle cx="25.5000" cy="7.0000" r="0.4000" /> 
</g>
<g style="fill:#4D7FC4; fill-opacity:1.0000; stroke:none;">
<circle cx="3.5000" cy="23.0000" r="0.4000" /> 
</g>
<g style="fill:#4D7FC4; fill-opacity:1.0000; stroke:none;">
<circle cx="3.5000" cy="13.0000" r="0.4000" /> 
</g>
<g style="fill:#4D7FC4; fill-opacity:1.0000; stroke:none;">
<circle cx="15.7500" cy="8.7500" r="0.2250" /> 
</g>
<g style="fill:#4D7FC4; fill-opacity:1.0000; stroke:none;">
<circle cx="25.5000" cy="9.0000" r="0.4000" /> 
</g>
<g style="fill:#4D7FC4; fill-opacity:1.0000; stroke:none;">
<circle cx="24.0000" cy="15.0000" r="0.4000" /> 
</g>
<g style="fill:#4D7FC4; fill-opacity:1.0000; stroke:none;">
<circle cx="5.0000" cy="7.0000" r="0.4000" /> 
</g>
<g style="fill:#4D7FC4; fill-opacity:1.0000; stroke:none;">
<circle cx="18.9150" cy="7.6650" r="0.2250" /> 
</g>
<g style="fill:#4D7FC4; fill-opacity:1.0000; stroke:none;">
<circle cx="10.0000" cy="8.5000" r="0.2250" /> 
</g>
<g style="fill:#4D7FC4; fill-opacity:1.0000; stroke:none;">
<circle cx="17.2500" cy="6.7500" r="0.2250" /> 
</g>
<g style="fill:#4D7FC4; fill-opacity:1.0000; stroke:none;">
<circle cx="20.5000" cy="23.9625" r="0.4000" /> 
</g>
<g style="fill:#4D7FC4; fill-opacity:1.0000; stroke:none;">
<circle cx="15.8600" cy="5.2700" r="0.2250" /> 
</g>
<g style="fill:#4D7FC4; fill-opacity:1.0000; stroke:none;">
<circle cx="21.2500" cy="6.0000" r="0.2250" /> 
</g>
<g style="fill:#4D7FC4; fill-opacity:1.0000; stroke:none;">
<circle cx="7.7500" cy="6.0000" r="0.2250" /> 
</g>
<g style="fill:#4D7FC4; fill-opacity:1.0000; stroke:none;">
<circle cx="12.9300" cy="5.2699" r="0.2250" /> 
</g>
<g style="fill:#4D7FC4; fill-opacity:1.0000; stroke:none;">
<circle cx="13.7500" cy="9.2500" r="0.2250" /> 
</g>
<g style="fill:none; 
stroke:#4D7FC4; stroke-width:0.2500; stroke-opacity:1; 
stroke-linecap:round; stroke-linejoin:round;">
<path d="M15.6002 8.6002
L15.6002 7.6650
" />
<path d="M11.7500 7.2500
L12.1852 7.2500
" />
<path d="M12.3152 7.9500
L12.6002 7.6650
" />
<path d="M15.0000 8.2652
L15.0000 8.7500
" />
<path d="M15.7500 8.7500
L15.6002 8.6002
" />
<path d="M11.7500 7.9500
L12.3152 7.9500
" />
<path d="M15.6002 7.6650
L15.0000 8.2652
" />
<path d="M12.1852 7.2500
L12.6002 7.6650
" />
<path d="M18.9150 7.6650
L16.4001 7.6650
" />
<path d="M10.0000 8.5000
L13.0000 8.5000
" />
<path d="M13.4001 8.0999
L13.4001 7.6650
" />
<path d="M13.0000 8.5000
L13.4001 8.0999
" />
<path d="M17.2500 6.7500
L16.8350 6.3350
" />
<path d="M16.8350 6.3350
L16.4001 6.3350
" />
<path d="M12.5999 5.5999
L12.5999 6.3350
" />
<path d="M15.5999 5.5301
L15.5999 6.3350
" />
<path d="M12.9300 5.2699
L12.5999 5.5999
" />
<path d="M15.8600 5.2700
L15.5999 5.5301
" />
<path d="M13.8350 6.3350
L13.4001 6.3350
" />
<path d="M14.1250 8.8750
L14.1250 6.6250
" />
<path d="M14.1250 6.6250
L13.8350 6.3350
" />
<path d="M13.7500 9.2500
L14.1250 8.8750
" />
<path style="fill:#4D7FC4; fill-opacity:1.0000; stroke:none;fill-rule:evenodd;"
d="M 24.0015,2.0005
24.2041,2.0053
24.2102,2.0056
24.4014,2.0196
24.4077,2.0203
24.5896,2.0430
24.5961,2.0440
24.7684,2.0750
24.7751,2.0764
24.9396,2.1155
24.9464,2.1174
25.1000,2.1633
25.1103,2.1669
25.4009,2.2826
25.4146,2.2890
25.6759,2.4321
25.6890,2.4403
25.9253,2.6111
25.9372,2.6208
26.1506,2.8195
26.1610,2.8305
26.1769,2.8494
26.3524,3.0580
26.3610,3.0696
26.5304,3.3269
26.5373,3.3387
26.6663,3.5918
26.6836,3.6257
26.6888,3.6375
26.8099,3.9521
26.8136,3.9635
26.9064,4.2988
26.9089,4.3098
26.9697,4.6456
26.9712,4.6575
26.9991,4.9949
26.9995,5.0051
26.9995,23.9985
26.9995,24.0015
26.9947,24.2041
26.9944,24.2102
26.9804,24.4013
26.9797,24.4077
26.9570,24.5895
26.9560,24.5961
26.9250,24.7684
26.9236,24.7751
26.8845,24.9396
26.8826,24.9464
26.8367,25.1000
26.8331,25.1103
26.7174,25.4009
26.7110,25.4146
26.5679,25.6759
26.5597,25.6890
26.3889,25.9253
26.3792,25.9372
26.1805,26.1506
26.1695,26.1610
25.9420,26.3524
25.9304,26.3610
25.6731,26.5304
25.6612,26.5373
25.3743,26.6836
25.3625,26.6888
25.0479,26.8099
25.0365,26.8136
24.7012,26.9064
24.6902,26.9089
24.3544,26.9697
24.3425,26.9713
24.0051,26.9991
23.9949,26.9995
5.0015,26.9995
4.9985,26.9995
4.7959,26.9947
4.7898,26.9944
4.5987,26.9804
4.5923,26.9797
4.4105,26.9570
4.4039,26.9560
4.2316,26.9250
4.2249,26.9236
4.0604,26.8845
4.0536,26.8826
3.9000,26.8367
3.8897,26.8331
3.5991,26.7174
3.5854,26.7110
3.3241,26.5679
3.3110,26.5597
3.0747,26.3889
3.0628,26.3792
2.8494,26.1805
2.8390,26.1695
2.8285,26.1570
2.6476,25.9420
2.6390,25.9304
2.6296,25.9162
2.4696,25.6731
2.4627,25.6612
2.4561,25.6483
2.3164,25.3743
2.3112,25.3625
2.1901,25.0479
2.1864,25.0365
2.1606,24.9435
2.0936,24.7012
2.0911,24.6902
2.0303,24.3543
2.0287,24.3425
2.0089,24.1022
9.0300,24.1022
9.0300,24.7500
9.9470,24.7500
9.9141,24.8070
9.8800,24.9342
9.8800,25.0658
9.9141,25.1930
9.9470,25.2500
9.0300,25.2500
9.0300,25.8978
9.0364,25.9574
9.0364,25.9574
9.0866,26.0921
9.0866,26.0921
9.1728,26.2072
9.1728,26.2072
9.2879,26.2934
9.2879,26.2934
9.4226,26.3436
9.4226,26.3436
9.4822,26.3500
9.4822,26.3500
10.1300,26.3500
10.1300,25.4330
10.1870,25.4659
10.3142,25.5000
10.4458,25.5000
10.5730,25.4659
10.6300,25.4330
10.6300,26.3500
11.2778,26.3500
11.2778,26.3500
11.3374,26.3436
11.3374,26.3436
11.4721,26.2934
11.4721,26.2934
11.5872,26.2072
11.5872,26.2072
11.6733,26.0921
11.6734,26.0921
11.7224,25.9605
11.7643,25.9046
11.8298,25.8802
11.8980,25.8950
11.9263,25.9162
12.0402,26.0301
12.2122,26.1550
12.2122,26.1550
12.2122,26.1551
12.4016,26.2516
12.6038,26.3172
12.8137,26.3505
12.8137,26.3505
13.0263,26.3505
13.0263,26.3505
13.2362,26.3172
13.4384,26.2516
13.6278,26.1551
13.7145,26.0921
13.7998,26.0301
13.7998,26.0301
13.7998,26.0301
13.9501,25.8798
13.9501,25.8798
13.9501,25.8798
14.0750,25.7078
14.0750,25.7078
14.0751,25.7078
14.0795,25.6991
14.1275,25.6483
14.1953,25.6315
14.2614,25.6540
14.3005,25.6991
14.3050,25.7078
14.4299,25.8798
14.5802,26.0301
14.7522,26.1550
14.7522,26.1550
14.7522,26.1551
14.9416,26.2516
15.1438,26.3172
15.3537,26.3505
15.3537,26.3505
15.5663,26.3505
15.5663,26.3505
15.7762,26.3172
15.9784,26.2516
16.1678,26.1551
16.2545,26.0921
16.3398,26.0301
16.3398,26.0301
16.3398,26.0301
16.4901,25.8798
16.4901,25.8798
16.4901,25.8798
16.6150,25.7078
16.6150,25.7078
16.6151,25.7078
16.6195,25.6991
16.6675,25.6483
16.7353,25.6315
16.8014,25.6540
16.8405,25.6991
16.8450,25.7078
16.9699,25.8798
17.1202,26.0301
17.2922,26.1550
17.2922,26.1550
17.2922,26.1551
17.4816,26.2516
17.6838,26.3172
17.8937,26.3505
17.8937,26.3505
18.1063,26.3505
18.1063,26.3505
18.3162,26.3172
18.5184,26.2516
18.7078,26.1551
18.7945,26.0921
18.8798,26.0301
18.8798,26.0301
18.8798,26.0301
19.0301,25.8798
19.0301,25.8798
19.0301,25.8798
19.1550,25.7078
19.1550,25.7078
19.1551,25.7078
19.2516,25.5184
19.3172,25.3162
19.3505,25.1063
19.3505,24.8937
19.3172,24.6838
19.2516,24.4816
19.1551,24.2922
19.1550,24.2922
19.1550,24.2922
19.0301,24.1202
18.8798,23.9699
18.8772,23.9680
18.8772,23.9680
18.7475,23.8738
19.5995,23.8738
19.5995,24.0512
19.6341,24.2252
19.6341,24.2252
19.7020,24.3890
19.7020,24.3891
19.8005,24.5365
19.8005,24.5365
19.9260,24.6620
19.9260,24.6620
20.0734,24.7605
20.0735,24.7605
20.1857,24.8070
20.2373,24.8284
20.2373,24.8284
20.2373,24.8284
20.4113,24.8630
20.4113,24.8630
20.4113,24.8630
20.5887,24.8630
20.5887,24.8630
20.6467,24.8515
20.7627,24.8284
20.7627,24.8284
20.7627,24.8284
20.9265,24.7605
21.0740,24.6620
21.1995,24.5365
21.2980,24.3890
21.3659,24.2252
21.3695,24.2071
21.4005,24.0512
21.4005,24.0512
21.4005,23.8738
21.4005,23.8738
21.3659,23.6998
21.3659,23.6998
21.2980,23.5360
21.2980,23.5359
21.1995,23.3885
21.1995,23.3885
21.0740,23.2630
21.0740,23.2630
20.9266,23.1645
20.9265,23.1645
20.7627,23.0966
20.7627,23.0966
20.5887,23.0620
20.5887,23.0620
20.4113,23.0620
20.4113,23.0620
20.2373,23.0966
20.2373,23.0966
20.0735,23.1645
20.0734,23.1645
19.9260,23.2630
19.9260,23.2630
19.8005,23.3885
19.8005,23.3885
19.7020,23.5359
19.7020,23.5360
19.6341,23.6998
19.6341,23.6998
19.5995,23.8738
18.7475,23.8738
18.7078,23.8450
18.5184,23.7484
18.5184,23.7484
18.5184,23.7484
18.3162,23.6828
18.3162,23.6828
18.3162,23.6828
18.1550,23.6572
18.1063,23.6495
17.8937,23.6495
17.8450,23.6572
17.6838,23.6828
17.4816,23.7484
17.2922,23.8450
17.1202,23.9699
16.9699,24.1202
16.8449,24.2922
16.8405,24.3009
16.7925,24.3517
16.7247,24.3685
16.6586,24.3460
16.6195,24.3009
16.6151,24.2922
16.4901,24.1202
16.3398,23.9699
16.1678,23.8450
15.9784,23.7484
15.9784,23.7484
15.9784,23.7484
15.7762,23.6828
15.7762,23.6828
15.7762,23.6828
15.6150,23.6572
15.5663,23.6495
15.3537,23.6495
15.3050,23.6572
15.1438,23.6828
14.9416,23.7484
14.7522,23.8450
14.5802,23.9699
14.4299,24.1202
14.3049,24.2922
14.3005,24.3009
14.2525,24.3517
14.1847,24.3685
14.1186,24.3460
14.0795,24.3009
14.0750,24.2922
13.9501,24.1202
13.7998,23.9699
13.6278,23.8450
13.4384,23.7484
13.4384,23.7484
13.4384,23.7484
13.2362,23.6828
13.2362,23.6828
13.2362,23.6828
13.0750,23.6572
13.0263,23.6495
12.8137,23.6495
12.7650,23.6572
12.6038,23.6828
12.4016,23.7484
12.2122,23.8450
12.0402,23.9699
11.9263,24.0838
11.8650,24.1173
11.7953,24.1123
11.7393,24.0704
11.7224,24.0395
11.6734,23.9079
11.6733,23.9079
11.5872,23.7928
11.5872,23.7928
11.4721,23.7066
11.4721,23.7066
11.3374,23.6564
11.3374,23.6564
11.2778,23.6500
10.6300,23.6500
10.6300,24.5670
10.5730,24.5341
10.4458,24.5000
10.3142,24.5000
10.1870,24.5341
10.1300,24.5670
10.1300,23.6500
9.4822,23.6500
9.4226,23.6564
9.4226,23.6564
9.2879,23.7066
9.2879,23.7066
9.1728,23.7928
9.1728,23.7928
9.0866,23.9079
9.0866,23.9079
9.0364,24.0426
9.0364,24.0426
9.0300,24.1022
2.0089,24.1022
2.0047,24.0512
2.0009,24.0051
2.0005,23.9949
2.0005,8.5715
9.2745,8.5715
9.3024,8.7116
9.3024,8.7116
9.3571,8.8437
9.3571,8.8437
9.4365,8.9625
9.4365,8.9625
9.5375,9.0635
9.5375,9.0635
9.6563,9.1429
9.6563,9.1429
9.6563,9.1429
9.7884,9.1976
9.7884,9.1976
9.7884,9.1976
9.9285,9.2255
9.9285,9.2255
10.0715,9.2255
10.1762,9.2047
10.2116,9.1976
10.3437,9.1429
10.3437,9.1429
10.3489,9.1401
10.4073,9.1255
12.9005,9.1255
12.9675,9.1452
13.0133,9.1980
13.0245,9.2495
13.0245,9.3215
13.0245,9.3215
13.0245,9.3215
13.0524,9.4616
13.0524,9.4616
13.1071,9.5937
13.1071,9.5937
13.1865,9.7125
13.1865,9.7125
13.2875,9.8135
13.2875,9.8135
13.4063,9.8929
13.4063,9.8929
13.4063,9.8929
13.5384,9.9476
13.5384,9.9476
13.5384,9.9476
13.6785,9.9755
13.6785,9.9755
13.8215,9.9755
13.9158,9.9567
13.9616,9.9476
14.0937,9.8929
14.2125,9.8135
14.3135,9.7125
14.3929,9.5937
14.4476,9.4616
14.4476,9.4616
14.4493,9.4560
14.4568,9.4436
14.4592,9.4325
14.4803,9.4043
14.5237,9.3609
14.5237,9.3609
14.6109,9.2737
14.6617,9.1976
14.6793,9.1713
14.7127,9.0908
14.7174,9.0792
14.7265,9.0575
14.7265,9.0575
14.7265,9.0575
14.7385,8.9970
14.7505,8.9366
14.7505,8.8134
14.7505,8.5040
14.7702,8.4370
14.8230,8.3912
14.8921,8.3813
14.9557,8.4103
14.9622,8.4163
14.9680,8.4222
15.0831,8.5083
15.0831,8.5083
15.2178,8.5586
15.2178,8.5586
15.2774,8.5650
15.2774,8.5650
15.3502,8.5650
15.3502,7.7890
15.3528,7.7803
15.3515,7.7713
15.3624,7.7473
15.3699,7.7219
15.3767,7.7160
15.3805,7.7078
15.4027,7.6935
15.4227,7.6762
15.4332,7.6739
15.4393,7.6700
15.4742,7.6650
15.5005,7.6650
15.5676,7.6847
15.6133,7.7375
15.6245,7.7890
15.6245,8.1128
15.6245,8.1128
15.6310,8.1725
15.6812,8.3073
15.6812,8.3073
15.6812,8.3073
15.7058,8.3402
15.7675,8.4225
15.8005,8.4472
15.8424,8.5032
15.8502,8.5465
15.8502,8.5650
15.9230,8.5650
15.9230,8.5650
15.9845,8.5584
16.0110,8.5584
16.0176,8.5591
16.0176,8.5591
16.0772,8.5655
16.7229,8.5655
16.7825,8.5591
16.9174,8.5088
17.0326,8.4225
17.0943,8.3402
17.1502,8.2983
17.1935,8.2905
18.5077,8.2905
18.5661,8.3051
18.5713,8.3079
18.5713,8.3079
18.7034,8.3626
18.7034,8.3626
18.7034,8.3626
18.8435,8.3905
18.8435,8.3905
18.9864,8.3905
19.0807,8.3717
19.1266,8.3626
19.2586,8.3079
19.3775,8.2285
19.4785,8.1275
19.5579,8.0086
19.6126,7.8766
19.6377,7.7505
19.6405,7.7364
19.6405,7.5935
19.6126,7.4534
19.6126,7.4534
19.6126,7.4534
19.5579,7.3213
19.5579,7.3213
19.5579,7.3213
19.4785,7.2025
19.4785,7.2025
19.3775,7.1014
19.3775,7.1014
19.2586,7.0220
19.2586,7.0220
19.1266,6.9674
19.1266,6.9674
18.9864,6.9395
18.9864,6.9395
18.8435,6.9395
18.8435,6.9395
18.7034,6.9674
18.7034,6.9674
18.5713,7.0220
18.5661,7.0248
18.5077,7.0395
18.0832,7.0395
18.0162,7.0198
17.9704,6.9670
17.9605,6.8978
17.9616,6.8913
17.9755,6.8215
17.9755,6.6785
17.9476,6.5384
17.9476,6.5384
17.9476,6.5384
17.8929,6.4063
17.8929,6.4063
17.8929,6.4063
17.8135,6.2875
17.8135,6.2875
17.7125,6.1865
17.7125,6.1865
17.5937,6.1071
17.5937,6.1071
17.5077,6.0715
20.5245,6.0715
20.5524,6.2116
20.5524,6.2116
20.6071,6.3436
20.6071,6.3437
20.6865,6.4625
20.6865,6.4625
20.7875,6.5635
20.7875,6.5635
20.9063,6.6429
20.9063,6.6429
20.9063,6.6429
21.0384,6.6976
21.0384,6.6976
21.0384,6.6976
21.1785,6.7255
21.1785,6.7255
21.3215,6.7255
21.4158,6.7067
21.4616,6.6976
21.5937,6.6429
21.7125,6.5635
21.8135,6.4625
21.8929,6.3437
21.9476,6.2116
21.9684,6.1071
21.9755,6.0715
21.9755,5.9285
21.9476,5.7884
21.9476,5.7884
21.9476,5.7884
21.8929,5.6563
21.8929,5.6563
21.8929,5.6563
21.8135,5.5375
21.8135,5.5375
21.7125,5.4365
21.7125,5.4365
21.5937,5.3571
21.5937,5.3571
21.4616,5.3024
21.4616,5.3024
21.3215,5.2745
21.3215,5.2745
21.1785,5.2745
21.1785,5.2745
21.0384,5.3024
21.0384,5.3024
20.9063,5.3571
20.9063,5.3571
20.7875,5.4365
20.7875,5.4365
20.6865,5.5375
20.6865,5.5375
20.6071,5.6563
20.6071,5.6563
20.5524,5.7884
20.5524,5.7884
20.5245,5.9285
20.5245,5.9285
20.5245,6.0715
20.5245,6.0715
20.5245,6.0715
17.5077,6.0715
17.4616,6.0524
17.4559,6.0507
17.4436,6.0432
17.4325,6.0408
17.4043,6.0197
17.3280,5.9434
17.3280,5.9434
17.3280,5.9434
17.3209,5.9363
17.3209,5.9363
17.2338,5.8492
17.2338,5.8492
17.2338,5.8492
17.1917,5.8211
17.1469,5.7675
17.1445,5.7614
17.1189,5.6927
17.1189,5.6927
17.1189,5.6927
17.0326,5.5775
17.0326,5.5775
16.9174,5.4912
16.9174,5.4912
16.7825,5.4409
16.7825,5.4409
16.7229,5.4345
16.7229,5.4345
16.7229,5.4345
16.7229,5.4345
16.7095,5.4345
16.6425,5.4148
16.5967,5.3620
16.5855,5.3105
16.5855,5.1985
16.5576,5.0584
16.5576,5.0584
16.5576,5.0584
16.5029,4.9263
16.5029,4.9263
16.5029,4.9263
16.4235,4.8075
16.4235,4.8075
16.3225,4.7065
16.3225,4.7065
16.2037,4.6271
16.2036,4.6271
16.0716,4.5724
16.0716,4.5724
15.9315,4.5445
15.9315,4.5445
15.7885,4.5445
15.7885,4.5445
15.6484,4.5724
15.6484,4.5724
15.5163,4.6271
15.5163,4.6271
15.3975,4.7065
15.3975,4.7065
15.2965,4.8075
15.2965,4.8075
15.2171,4.9263
15.2171,4.9263
15.1624,5.0584
15.1607,5.0640
15.1297,5.1157
15.1141,5.1313
15.1141,5.1313
15.1141,5.1313
15.0799,5.1825
15.0799,5.1825
15.0799,5.1825
15.0456,5.2338
15.0456,5.2338
15.0172,5.3024
15.0172,5.3024
15.0051,5.3316
15.0051,5.3316
15.0011,5.3414
14.9985,5.3476
14.9777,5.4523
14.9773,5.4540
14.9744,5.4684
14.9744,5.5268
14.9548,5.5938
14.9497,5.6011
14.8811,5.6927
14.8811,5.6927
14.8308,5.8275
14.8244,5.8871
14.8244,5.8872
14.8244,6.1405
14.8182,6.1617
14.8166,6.1838
14.8086,6.1946
14.8048,6.2075
14.7880,6.2220
14.7748,6.2398
14.7621,6.2445
14.7520,6.2533
14.7300,6.2564
14.7093,6.2642
14.6961,6.2613
14.6828,6.2632
14.6627,6.2540
14.6410,6.2493
14.6233,6.2360
14.6192,6.2342
14.6128,6.2282
14.5463,6.1617
14.5237,6.1391
14.5237,6.1391
14.3252,5.9406
14.3252,5.9406
14.2338,5.8492
14.2338,5.8492
14.1917,5.8211
14.1469,5.7675
14.1445,5.7614
14.1189,5.6927
14.1189,5.6927
14.1189,5.6927
14.0326,5.5775
14.0326,5.5775
13.9174,5.4912
13.9174,5.4912
13.7825,5.4409
13.7662,5.4392
13.7017,5.4124
13.6618,5.3550
13.6555,5.3159
13.6555,5.1984
13.6276,5.0583
13.6276,5.0583
13.6276,5.0583
13.5853,4.9562
13.5729,4.9262
13.5729,4.9262
13.4935,4.8074
13.4935,4.8074
13.3925,4.7064
13.3925,4.7064
13.2737,4.6270
13.2736,4.6270
13.1416,4.5723
13.1416,4.5723
13.0015,4.5444
13.0015,4.5444
12.8585,4.5444
12.8585,4.5444
12.7184,4.5723
12.7184,4.5723
12.5863,4.6270
12.5863,4.6270
12.4675,4.7064
12.4675,4.7064
12.3665,4.8074
12.3665,4.8074
12.2871,4.9262
12.2871,4.9262
12.2324,5.0583
12.2307,5.0639
12.1997,5.1156
12.1141,5.2012
12.1141,5.2012
12.0456,5.3037
12.0456,5.3037
12.0269,5.3490
12.0269,5.3490
11.9985,5.4175
11.9985,5.4175
11.9884,5.4684
11.9884,5.4684
11.9752,5.5348
11.9752,5.5348
11.9746,5.5375
11.9744,5.5383
11.9744,5.5394
11.9736,5.5447
11.9635,5.5664
11.9503,5.6003
11.8811,5.6927
11.8811,5.6927
11.8308,5.8275
11.8244,5.8871
11.8244,5.8872
11.8244,6.7829
11.8244,6.7829
11.8308,6.8425
11.8738,6.9577
11.8788,7.0274
11.8738,7.0444
11.8316,7.1576
11.8316,7.1576
11.8252,7.2171
11.8252,7.4150
12.4762,7.4150
12.4849,7.4175
12.4939,7.4162
12.5179,7.4272
12.5432,7.4347
12.5492,7.4415
12.5574,7.4453
12.5717,7.4675
12.5890,7.4875
12.5913,7.4980
12.5952,7.5040
12.6002,7.5390
12.6002,7.7505
12.5805,7.8175
12.5277,7.8633
12.4762,7.8745
10.4073,7.8745
10.3489,7.8599
10.3437,7.8571
10.2116,7.8024
10.2116,7.8024
10.0715,7.7745
10.0715,7.7745
9.9285,7.7745
9.9285,7.7745
9.7884,7.8024
9.7884,7.8024
9.6563,7.8571
9.6563,7.8571
9.5375,7.9365
9.5375,7.9365
9.4365,8.0375
9.4365,8.0375
9.3571,8.1563
9.3571,8.1563
9.3024,8.2884
9.3024,8.2884
9.2745,8.4285
9.2745,8.4285
9.2745,8.5715
9.2745,8.5715
9.2745,8.5715
2.0005,8.5715
2.0005,6.0715
7.0245,6.0715
7.0524,6.2116
7.0524,6.2116
7.1071,6.3436
7.1071,6.3437
7.1865,6.4625
7.1865,6.4625
7.2875,6.5635
7.2875,6.5635
7.4063,6.6429
7.4063,6.6429
7.4063,6.6429
7.5384,6.6976
7.5384,6.6976
7.5384,6.6976
7.6785,6.7255
7.6785,6.7255
7.8215,6.7255
7.9158,6.7067
7.9616,6.6976
8.0937,6.6429
8.2125,6.5635
8.3135,6.4625
8.3929,6.3437
8.4476,6.2116
8.4684,6.1071
8.4755,6.0715
8.4755,5.9285
8.4476,5.7884
8.4476,5.7884
8.4476,5.7884
8.3929,5.6563
8.3929,5.6563
8.3929,5.6563
8.3135,5.5375
8.3135,5.5375
8.2125,5.4365
8.2125,5.4365
8.0937,5.3571
8.0937,5.3571
7.9616,5.3024
7.9616,5.3024
7.8215,5.2745
7.8215,5.2745
7.6785,5.2745
7.6785,5.2745
7.5384,5.3024
7.5384,5.3024
7.4063,5.3571
7.4063,5.3571
7.2875,5.4365
7.2875,5.4365
7.1865,5.5375
7.1865,5.5375
7.1071,5.6563
7.1071,5.6563
7.0524,5.7884
7.0524,5.7884
7.0245,5.9285
7.0245,5.9285
7.0245,6.0715
7.0245,6.0715
7.0245,6.0715
2.0005,6.0715
2.0005,5.0015
2.0005,4.9985
2.0022,4.9263
2.0053,4.7959
2.0056,4.7898
2.0117,4.7065
2.0196,4.5986
2.0203,4.5923
2.0430,4.4104
2.0440,4.4039
2.0750,4.2316
2.0764,4.2249
2.1155,4.0604
2.1174,4.0536
2.1633,3.9000
2.1669,3.8897
2.2826,3.5991
2.2890,3.5854
2.4321,3.3241
2.4403,3.3111
2.6111,3.0746
2.6208,3.0628
2.8195,2.8494
2.8305,2.8390
3.0580,2.6476
3.0696,2.6390
3.3269,2.4696
3.3387,2.4627
3.6257,2.3164
3.6375,2.3112
3.9521,2.1901
3.9635,2.1864
4.2988,2.0936
4.3097,2.0911
4.6457,2.0303
4.6575,2.0288
4.9598,2.0038
4.9949,2.0009
5.0051,2.0005
23.9985,2.0005
Z" /> 
<path style="fill:#02FFEE; fill-opacity:0.4000; stroke:none;fill-rule:evenodd;"
d="M 11.2300,25.8500
9.5300,25.8500
9.5300,24.1500
11.2300,24.1500
Z" /> 
</g>
<g style="fill:#02FFEE; fill-opacity:0.4000; stroke:none;">
<circle cx="12.9200" cy="25.0000" r="0.8500" /> 
</g>
<g style="fill:#02FFEE; fill-opacity:0.4000; stroke:none;">
<circle cx="15.4600" cy="25.0000" r="0.8500" /> 
</g>
<g style="fill:#02FFEE; fill-opacity:0.4000; stroke:none;">
<circle cx="18.0000" cy="25.0000" r="0.8500" /> 
<path style="fill:#02FFEE; fill-opacity:0.4000; stroke:none;fill-rule:evenodd;"
d="M 15.3249,5.9350
15.8750,5.9350
15.8750,6.7350
15.3249,6.7350
Z" /> 
<path style="fill:#02FFEE; fill-opacity:0.4000; stroke:none;fill-rule:evenodd;"
d="M 16.1250,5.9350
16.6751,5.9350
16.6751,6.7350
16.1250,6.7350
Z" /> 
<path style="fill:#02FFEE; fill-opacity:0.4000; stroke:none;fill-rule:evenodd;"
d="M 16.1250,7.2650
16.6751,7.2650
16.6751,8.0650
16.1250,8.0650
Z" /> 
<path style="fill:#02FFEE; fill-opacity:0.4000; stroke:none;fill-rule:evenodd;"
d="M 15.3252,7.2650
15.8752,7.2650
15.8752,8.0650
15.3252,8.0650
Z" /> 
<path style="fill:#02FFEE; fill-opacity:0.4000; stroke:none;fill-rule:evenodd;"
d="M 12.3249,5.9350
12.8750,5.9350
12.8750,6.7350
12.3249,6.7350
Z" /> 
<path style="fill:#02FFEE; fill-opacity:0.4000; stroke:none;fill-rule:evenodd;"
d="M 13.1250,5.9350
13.6751,5.9350
13.6751,6.7350
13.1250,6.7350
Z" /> 
<path style="fill:#02FFEE; fill-opacity:0.4000; stroke:none;fill-rule:evenodd;"
d="M 13.1250,7.2650
13.6751,7.2650
13.6751,8.0650
13.1250,8.0650
Z" /> 
<path style="fill:#02FFEE; fill-opacity:0.4000; stroke:none;fill-rule:evenodd;"
d="M 12.3252,7.2650
12.8752,7.2650
12.8752,8.0650
12.3252,8.0650
Z" /> 
</g>
<g style="fill:none; 
stroke:#E8B2A7; stroke-width:0.2000; stroke-opacity:1; 
stroke-linecap:round; stroke-linejoin:round;">
<path d="M12.2500 20.0000
L12.2500 21.7500
" />
<path d="M16.2500,22.2500 C16.7500,22.2500 16.7500,21.7500 16.7500,21.7500" />
<path d="M12.7500,19.5000 C12.2500,19.5000 12.2500,20.0000 12.2500,20.0000" />
</g>
<g style="fill:none; 
stroke:#E8B2A7; stroke-width:0.3651; stroke-opacity:1; 
stroke-linecap:round; stroke-linejoin:round;">
<path d="M13.9171 20.8318
L13.2821 20.8318
" />
</g>
<g style="fill:none; 
stroke:#E8B2A7; stroke-width:0.2000; stroke-opacity:1; 
stroke-linecap:round; stroke-linejoin:round;">
<path d="M16.7500,20.0000 C16.7500,19.5000 16.2500,19.5000 16.2500,19.5000" />
<path d="M16.2500 19.5000
L12.7500 19.5000
" />
<path style="fill:none; 
stroke:#E8B2A7; stroke-width:0.3651; stroke-opacity:1; 
stroke-linecap:round; stroke-linejoin:round;fill:none"
d="M 13.6365,20.0390
13.6730,20.0418
13.7089,20.0463
13.7442,20.0526
13.7789,20.0607
13.8129,20.0705
13.8461,20.0820
13.8786,20.0951
13.9103,20.1099
13.9411,20.1262
13.9710,20.1442
14.0000,20.1636
14.0280,20.1846
14.0549,20.2071
14.0808,20.2310
14.1056,20.2564
14.1292,20.2831
14.1516,20.3112
14.1727,20.3406
14.1925,20.3714
14.2111,20.4034
14.2282,20.4367
14.2439,20.4712
14.2581,20.5069
14.2708,20.5437
14.2820,20.5817
14.2916,20.6208
14.2995,20.6610
14.3058,20.7022
14.3103,20.7444
14.3130,20.7876
14.3139,20.8318
14.3130,20.8760
14.3103,20.9192
14.3058,20.9615
14.2995,21.0027
14.2916,21.0428
14.2820,21.0819
14.2708,21.1199
14.2581,21.1568
14.2439,21.1925
14.2282,21.2270
14.2111,21.2602
14.1925,21.2923
14.1727,21.3230
14.1516,21.3525
14.1292,21.3806
14.1056,21.4073
14.0808,21.4326
14.0549,21.4566
14.0280,21.4790
14.0000,21.5000
13.9710,21.5195
13.9411,21.5374
13.9103,21.5538
13.8786,21.5685
13.8461,21.5817
13.8129,21.5931
13.7789,21.6029
13.7442,21.6110
13.7089,21.6173
13.6730,21.6219
13.6365,21.6246
13.5996,21.6256
13.5626,21.6246
13.5261,21.6219
13.4902,21.6173
13.4549,21.6110
13.4202,21.6029
13.3863,21.5931
13.3530,21.5817
13.3205,21.5685
13.2888,21.5538
13.2580,21.5374
13.2281,21.5195
13.1991,21.5000
13.1711,21.4790
13.1442,21.4566
13.1183,21.4326
13.0935,21.4073
13.0699,21.3806
13.0476,21.3525
13.0264,21.3230
13.0066,21.2923
12.9881,21.2602
12.9709,21.2270
12.9552,21.1925
12.9410,21.1568
12.9283,21.1199
12.9171,21.0819
12.9075,21.0428
12.8996,21.0027
12.8934,20.9615
12.8888,20.9192
12.8861,20.8760
12.8852,20.8318
12.8861,20.7876
12.8888,20.7444
12.8934,20.7022
12.8996,20.6610
12.9075,20.6208
12.9171,20.5817
12.9283,20.5437
12.9410,20.5069
12.9552,20.4712
12.9709,20.4367
12.9881,20.4034
13.0066,20.3714
13.0264,20.3406
13.0476,20.3112
13.0699,20.2831
13.0935,20.2564
13.1183,20.2310
13.1442,20.2071
13.1711,20.1846
13.1991,20.1636
13.2281,20.1442
13.2580,20.1262
13.2888,20.1099
13.3205,20.0951
13.3530,20.0820
13.3863,20.0705
13.4202,20.0607
13.4549,20.0526
13.4902,20.0463
13.5261,20.0418
13.5626,20.0390
13.5996,20.0381
Z" /> 
</g>
<g style="fill:none; 
stroke:#E8B2A7; stroke-width:0.2000; stroke-opacity:1; 
stroke-linecap:round; stroke-linejoin:round;">
<path d="M12.2500,21.7500 C12.2500,22.2500 12.7500,22.2500 12.7500,22.2500" />
</g>
<g style="fill:none; 
stroke:#E8B2A7; stroke-width:0.3651; stroke-opacity:1; 
stroke-linecap:round; stroke-linejoin:round;">
<path d="M16.1396 21.6256
L15.3458 20.0381
" />
</g>
<g style="fill:none; 
stroke:#E8B2A7; stroke-width:0.2000; stroke-opacity:1; 
stroke-linecap:round; stroke-linejoin:round;">
<path d="M16.7500 21.7500
L16.7500 20.0000
" />
<path d="M12.7500 22.2500
L16.2500 22.2500
" />
</g>
<g style="fill:none; 
stroke:#E8B2A7; stroke-width:0.3651; stroke-opacity:1; 
stroke-linecap:round; stroke-linejoin:round;">
<path d="M15.3458 20.0381
L14.5521 21.6256
" />
</g>
<g style="fill:none; 
stroke:#E8B2A7; stroke-width:0.1500; stroke-opacity:1; 
stroke-linecap:round; stroke-linejoin:round;">
<text x="17.2500" y="10.5000"
transform="scale(-1 1) translate(-34.500000 0)"
textLength="4.8214" font-size="1.3333" lengthAdjust="spacingAndGlyphs"
text-anchor="middle" opacity="0" stroke-opacity="0">SNS_A</text>
<g class="stroked-text"><desc>SNS_A</desc>
<path d="M19.3452 10.3222
L19.2024 10.3698
" />
<path d="M19.2024 10.3698
L18.9643 10.3698
" />
<path d="M18.9643 10.3698
L18.8690 10.3222
" />
<path d="M18.8690 10.3222
L18.8214 10.2746
" />
<path d="M18.8214 10.2746
L18.7738 10.1793
" />
<path d="M18.7738 10.1793
L18.7738 10.0841
" />
<path d="M18.7738 10.0841
L18.8214 9.9889
" />
<path d="M18.8214 9.9889
L18.8690 9.9412
" />
<path d="M18.8690 9.9412
L18.9643 9.8936
" />
<path d="M18.9643 9.8936
L19.1548 9.8460
" />
<path d="M19.1548 9.8460
L19.2500 9.7984
" />
<path d="M19.2500 9.7984
L19.2976 9.7508
" />
<path d="M19.2976 9.7508
L19.3452 9.6555
" />
<path d="M19.3452 9.6555
L19.3452 9.5603
" />
<path d="M19.3452 9.5603
L19.2976 9.4651
" />
<path d="M19.2976 9.4651
L19.2500 9.4174
" />
<path d="M19.2500 9.4174
L19.1548 9.3698
" />
<path d="M19.1548 9.3698
L18.9167 9.3698
" />
<path d="M18.9167 9.3698
L18.7738 9.4174
" />
<path d="M18.3452 10.3698
L18.3452 9.3698
" />
<path d="M18.3452 9.3698
L17.7738 10.3698
" />
<path d="M17.7738 10.3698
L17.7738 9.3698
" />
<path d="M17.3452 10.3222
L17.2024 10.3698
" />
<path d="M17.2024 10.3698
L16.9643 10.3698
" />
<path d="M16.9643 10.3698
L16.8690 10.3222
" />
<path d="M16.8690 10.3222
L16.8214 10.2746
" />
<path d="M16.8214 10.2746
L16.7738 10.1793
" />
<path d="M16.7738 10.1793
L16.7738 10.0841
" />
<path d="M16.7738 10.0841
L16.8214 9.9889
" />
<path d="M16.8214 9.9889
L16.8690 9.9412
" />
<path d="M16.8690 9.9412
L16.9643 9.8936
" />
<path d="M16.9643 9.8936
L17.1548 9.8460
" />
<path d="M17.1548 9.8460
L17.2500 9.7984
" />
<path d="M17.2500 9.7984
L17.2976 9.7508
" />
<path d="M17.2976 9.7508
L17.3452 9.6555
" />
<path d="M17.3452 9.6555
L17.3452 9.5603
" />
<path d="M17.3452 9.5603
L17.2976 9.4651
" />
<path d="M17.2976 9.4651
L17.2500 9.4174
" />
<path d="M17.2500 9.4174
L17.1548 9.3698
" />
<path d="M17.1548 9.3698
L16.9167 9.3698
" />
<path d="M16.9167 9.3698
L16.7738 9.4174
" />
<path d="M16.5833 10.4651
L15.8214 10.4651
" />
<path d="M15.6310 10.0841
L15.1548 10.0841
" />
<path d="M15.7262 10.3698
L15.3929 9.3698
" />
<path d="M15.3929 9.3698
L15.0595 10.3698
" />
</g><text x="12.0000" y="10.5000"
transform="scale(-1 1) translate(-24.000000 0)"
textLength="4.9643" font-size="1.3333" lengthAdjust="spacingAndGlyphs"
text-anchor="middle" opacity="0" stroke-opacity="0">SNS_B</text>
<g class="stroked-text"><desc>SNS_B</desc>
<path d="M14.1667 10.3222
L14.0238 10.3698
" />
<path d="M14.0238 10.3698
L13.7857 10.3698
" />
<path d="M13.7857 10.3698
L13.6905 10.3222
" />
<path d="M13.6905 10.3222
L13.6429 10.2746
" />
<path d="M13.6429 10.2746
L13.5952 10.1793
" />
<path d="M13.5952 10.1793
L13.5952 10.0841
" />
<path d="M13.5952 10.0841
L13.6429 9.9889
" />
<path d="M13.6429 9.9889
L13.6905 9.9412
" />
<path d="M13.6905 9.9412
L13.7857 9.8936
" />
<path d="M13.7857 9.8936
L13.9762 9.8460
" />
<path d="M13.9762 9.8460
L14.0714 9.7984
" />
<path d="M14.0714 9.7984
L14.1190 9.7508
" />
<path d="M14.1190 9.7508
L14.1667 9.6555
" />
<path d="M14.1667 9.6555
L14.1667 9.5603
" />
<path d="M14.1667 9.5603
L14.1190 9.4651
" />
<path d="M14.1190 9.4651
L14.0714 9.4174
" />
<path d="M14.0714 9.4174
L13.9762 9.3698
" />
<path d="M13.9762 9.3698
L13.7381 9.3698
" />
<path d="M13.7381 9.3698
L13.5952 9.4174
" />
<path d="M13.1667 10.3698
L13.1667 9.3698
" />
<path d="M13.1667 9.3698
L12.5952 10.3698
" />
<path d="M12.5952 10.3698
L12.5952 9.3698
" />
<path d="M12.1667 10.3222
L12.0238 10.3698
" />
<path d="M12.0238 10.3698
L11.7857 10.3698
" />
<path d="M11.7857 10.3698
L11.6905 10.3222
" />
<path d="M11.6905 10.3222
L11.6429 10.2746
" />
<path d="M11.6429 10.2746
L11.5952 10.1793
" />
<path d="M11.5952 10.1793
L11.5952 10.0841
" />
<path d="M11.5952 10.0841
L11.6429 9.9889
" />
<path d="M11.6429 9.9889
L11.6905 9.9412
" />
<path d="M11.6905 9.9412
L11.7857 9.8936
" />
<path d="M11.7857 9.8936
L11.9762 9.8460
" />
<path d="M11.9762 9.8460
L12.0714 9.7984
" />
<path d="M12.0714 9.7984
L12.1190 9.7508
" />
<path d="M12.1190 9.7508
L12.1667 9.6555
" />
<path d="M12.1667 9.6555
L12.1667 9.5603
" />
<path d="M12.1667 9.5603
L12.1190 9.4651
" />
<path d="M12.1190 9.4651
L12.0714 9.4174
" />
<path d="M12.0714 9.4174
L11.9762 9.3698
" />
<path d="M11.9762 9.3698
L11.7381 9.3698
" />
<path d="M11.7381 9.3698
L11.5952 9.4174
" />
<path d="M11.4048 10.4651
L10.6429 10.4651
" />
<path d="M10.0714 9.8460
L9.9286 9.8936
" />
<path d="M9.9286 9.8936
L9.8810 9.9412
" />
<path d="M9.8810 9.9412
L9.8333 10.0365
" />
<path d="M9.8333 10.0365
L9.8333 10.1793
" />
<path d="M9.8333 10.1793
L9.8810 10.2746
" />
<path d="M9.8810 10.2746
L9.9286 10.3222
" />
<path d="M9.9286 10.3222
L10.0238 10.3698
" />
<path d="M10.0238 10.3698
L10.4048 10.3698
" />
<path d="M10.4048 10.3698
L10.4048 9.3698
" />
<path d="M10.4048 9.3698
L10.0714 9.3698
" />
<path d="M10.0714 9.3698
L9.9762 9.4174
" />
<path d="M9.9762 9.4174
L9.9286 9.4651
" />
<path d="M9.9286 9.4651
L9.8810 9.5603
" />
<path d="M9.8810 9.5603
L9.8810 9.6555
" />
<path d="M9.8810 9.6555
L9.9286 9.7508
" />
<path d="M9.9286 9.7508
L9.9762 9.7984
" />
<path d="M9.9762 9.7984
L10.0714 9.8460
" />
<path d="M10.0714 9.8460
L10.4048 9.8460
" />
</g><text x="16.0000" y="4.5000"
transform="scale(-1 1) translate(-32.000000 0)"
textLength="2.2500" font-size="1.3333" lengthAdjust="spacingAndGlyphs"
text-anchor="middle" opacity="0" stroke-opacity="0">U1</text>
<g class="stroked-text"><desc>U1</desc>
<path d="M16.7619 3.4548
L16.7619 4.2643
" />
<path d="M16.7619 4.2643
L16.7143 4.3596
" />
<path d="M16.7143 4.3596
L16.6667 4.4072
" />
<path d="M16.6667 4.4072
L16.5714 4.4548
" />
<path d="M16.5714 4.4548
L16.3810 4.4548
" />
<path d="M16.3810 4.4548
L16.2857 4.4072
" />
<path d="M16.2857 4.4072
L16.2381 4.3596
" />
<path d="M16.2381 4.3596
L16.1905 4.2643
" />
<path d="M16.1905 4.2643
L16.1905 3.4548
" />
<path d="M15.1905 4.4548
L15.7619 4.4548
" />
<path d="M15.4762 4.4548
L15.4762 3.4548
" />
<path d="M15.4762 3.4548
L15.5714 3.5977
" />
<path d="M15.5714 3.5977
L15.6667 3.6929
" />
<path d="M15.6667 3.6929
L15.7619 3.7405
" />
</g><text x="13.0000" y="4.5000"
transform="scale(-1 1) translate(-26.000000 0)"
textLength="2.2500" font-size="1.3333" lengthAdjust="spacingAndGlyphs"
text-anchor="middle" opacity="0" stroke-opacity="0">U2</text>
<g class="stroked-text"><desc>U2</desc>
<path d="M13.7619 3.4548
L13.7619 4.2643
" />
<path d="M13.7619 4.2643
L13.7143 4.3596
" />
<path d="M13.7143 4.3596
L13.6667 4.4072
" />
<path d="M13.6667 4.4072
L13.5714 4.4548
" />
<path d="M13.5714 4.4548
L13.3810 4.4548
" />
<path d="M13.3810 4.4548
L13.2857 4.4072
" />
<path d="M13.2857 4.4072
L13.2381 4.3596
" />
<path d="M13.2381 4.3596
L13.1905 4.2643
" />
<path d="M13.1905 4.2643
L13.1905 3.4548
" />
<path d="M12.7619 3.5501
L12.7143 3.5024
" />
<path d="M12.7143 3.5024
L12.6190 3.4548
" />
<path d="M12.6190 3.4548
L12.3810 3.4548
" />
<path d="M12.3810 3.4548
L12.2857 3.5024
" />
<path d="M12.2857 3.5024
L12.2381 3.5501
" />
<path d="M12.2381 3.5501
L12.1905 3.6453
" />
<path d="M12.1905 3.6453
L12.1905 3.7405
" />
<path d="M12.1905 3.7405
L12.2381 3.8834
" />
<path d="M12.2381 3.8834
L12.8095 4.4548
" />
<path d="M12.8095 4.4548
L12.1905 4.4548
" />
</g></g>
<g style="fill:none; 
stroke:#E8B2A7; stroke-width:0.1520; stroke-opacity:1; 
stroke-linecap:round; stroke-linejoin:round;">
<path d="M15.1111 5.7000
L15.1111 8.3001
" />
<path d="M15.1111 5.7000
L16.8891 5.7000
" />
<path d="M15.1111 8.3001
L16.8890 8.3001
" />
<path d="M15.1750 8.5500
L16.8250 8.5500
" />
<path d="M16.8891 5.7000
L16.8890 8.3001
" />
</g>
<g style="fill:none; 
stroke:#E8B2A7; stroke-width:0.2000; stroke-opacity:1; 
stroke-linecap:round; stroke-linejoin:round;">
<circle cx="15.2001" cy="5.3000" r="0.1000" /> 
</g>
<g style="fill:none; 
stroke:#E8B2A7; stroke-width:0.0600; stroke-opacity:1; 
stroke-linecap:round; stroke-linejoin:round;">
<circle cx="15.3000" cy="6.0500" r="0.0600" /> 
</g>
<g style="fill:none; 
stroke:#E8B2A7; stroke-width:0.1520; stroke-opacity:1; 
stroke-linecap:round; stroke-linejoin:round;">
<path d="M12.1111 5.7000
L12.1111 8.3001
" />
<path d="M12.1111 5.7000
L13.8891 5.7000
" />
<path d="M12.1111 8.3001
L13.8890 8.3001
" />
<path d="M12.1750 8.5500
L13.8250 8.5500
" />
<path d="M13.8891 5.7000
L13.8890 8.3001
" />
</g>
<g style="fill:none; 
stroke:#E8B2A7; stroke-width:0.2000; stroke-opacity:1; 
stroke-linecap:round; stroke-linejoin:round;">
<circle cx="12.2001" cy="5.3000" r="0.1000" /> 
</g>
<g style="fill:none; 
stroke:#E8B2A7; stroke-width:0.0600; stroke-opacity:1; 
stroke-linecap:round; stroke-linejoin:round;">
<circle cx="12.3000" cy="6.0500" r="0.0600" /> 
</g>
<g style="fill:none; 
stroke:#D0D2CD; stroke-width:0.1000; stroke-opacity:1; 
stroke-linecap:round; stroke-linejoin:round;">
<path d="M27.0000,24.0000 C27.0000,27.0000 24.0000,27.0000 24.0000,27.0000" />
<path d="M5.0000 2.0000
L24.0000 2.0000
" />
<path d="M27.0000 5.0000
L27.0000 24.0000
" />
<path d="M5.0000,27.0000 C2.0000,27.0000 2.0000,24.0000 2.0000,24.0000" />
<path d="M2.0000 5.0000
L2.0000 24.0000
" />
<path d="M2.0000,5.0000 C2.0000,2.0000 5.0000,2.0000 5.0000,2.0000" />
<path d="M24.0000,2.0000 C27.0000,2.0000 27.0000,5.0000 27.0000,5.0000" />
<path d="M5.0000 27.0000
L24.0000 27.0000
" />
</g>
<g style="fill:#FFFFFF; fill-opacity:1.0000; stroke:none;">
<circle cx="25.5000" cy="15.0000" r="0.1750" /> 
</g>
<g style="fill:#FFFFFF; fill-opacity:1.0000; stroke:none;">
<circle cx="25.5000" cy="13.0000" r="0.1750" /> 
</g>
<g style="fill:#FFFFFF; fill-opacity:1.0000; stroke:none;">
<circle cx="3.5000" cy="17.0000" r="0.1750" /> 
</g>
<g style="fill:#FFFFFF; fill-opacity:1.0000; stroke:none;">
<circle cx="3.5000" cy="21.0000" r="0.1750" /> 
</g>
<g style="fill:#FFFFFF; fill-opacity:1.0000; stroke:none;">
<circle cx="24.0000" cy="21.0000" r="0.1750" /> 
</g>
<g style="fill:#FFFFFF; fill-opacity:1.0000; stroke:none;">
<circle cx="24.0000" cy="23.0000" r="0.1750" /> 
</g>
<g style="fill:#FFFFFF; fill-opacity:1.0000; stroke:none;">
<circle cx="24.0000" cy="19.0000" r="0.1750" /> 
</g>
<g style="fill:#FFFFFF; fill-opacity:1.0000; stroke:none;">
<circle cx="24.0000" cy="5.0000" r="0.1750" /> 
</g>
<g style="fill:#FFFFFF; fill-opacity:1.0000; stroke:none;">
<circle cx="3.5000" cy="11.0000" r="0.1750" /> 
</g>
<g style="fill:#FFFFFF; fill-opacity:1.0000; stroke:none;">
<circle cx="24.0000" cy="17.0000" r="0.1750" /> 
</g>
<g style="fill:#FFFFFF; fill-opacity:1.0000; stroke:none;">
<circle cx="14.5000" cy="16.5000" r="0.1750" /> 
</g>
<g style="fill:#FFFFFF; fill-opacity:1.0000; stroke:none;">
<circle cx="7.0000" cy="26.0000" r="0.1750" /> 
</g>
<g style="fill:#FFFFFF; fill-opacity:1.0000; stroke:none;">
<circle cx="3.5000" cy="5.0000" r="0.1750" /> 
</g>
<g style="fill:#FFFFFF; fill-opacity:1.0000; stroke:none;">
<circle cx="18.7500" cy="9.7500" r="0.1000" /> 
</g>
<g style="fill:#FFFFFF; fill-opacity:1.0000; stroke:none;">
<circle cx="14.5000" cy="19.5000" r="0.1750" /> 
</g>
<g style="fill:#FFFFFF; fill-opacity:1.0000; stroke:none;">
<circle cx="5.0000" cy="23.0000" r="0.1750" /> 
</g>
<g style="fill:#FFFFFF; fill-opacity:1.0000; stroke:none;">
<circle cx="3.5000" cy="7.0000" r="0.1750" /> 
</g>
<g style="fill:#FFFFFF; fill-opacity:1.0000; stroke:none;">
<circle cx="3.5000" cy="9.0000" r="0.1750" /> 
</g>
<g style="fill:#FFFFFF; fill-opacity:1.0000; stroke:none;">
<circle cx="3.5000" cy="19.0000" r="0.1750" /> 
</g>
<g style="fill:#FFFFFF; fill-opacity:1.0000; stroke:none;">
<circle cx="5.0000" cy="15.0000" r="0.1750" /> 
</g>
<g style="fill:#FFFFFF; fill-opacity:1.0000; stroke:none;">
<circle cx="5.0000" cy="17.0000" r="0.1750" /> 
</g>
<g style="fill:#FFFFFF; fill-opacity:1.0000; stroke:none;">
<circle cx="25.5000" cy="5.0000" r="0.1750" /> 
</g>
<g style="fill:#FFFFFF; fill-opacity:1.0000; stroke:none;">
<circle cx="5.0000" cy="11.0000" r="0.1750" /> 
</g>
<g style="fill:#FFFFFF; fill-opacity:1.0000; stroke:none;">
<circle cx="24.0000" cy="7.0000" r="0.1750" /> 
</g>
<g style="fill:#FFFFFF; fill-opacity:1.0000; stroke:none;">
<circle cx="24.0000" cy="9.0000" r="0.1750" /> 
</g>
<g style="fill:#FFFFFF; fill-opacity:1.0000; stroke:none;">
<circle cx="3.5000" cy="15.0000" r="0.1750" /> 
</g>
<g style="fill:#FFFFFF; fill-opacity:1.0000; stroke:none;">
<circle cx="14.5000" cy="13.5000" r="0.1750" /> 
</g>
<g style="fill:#FFFFFF; fill-opacity:1.0000; stroke:none;">
<circle cx="5.0000" cy="19.0000" r="0.1750" /> 
</g>
<g style="fill:#FFFFFF; fill-opacity:1.0000; stroke:none;">
<circle cx="15.0000" cy="8.7500" r="0.1000" /> 
</g>
<g style="fill:#FFFFFF; fill-opacity:1.0000; stroke:none;">
<circle cx="10.2500" cy="9.7500" r="0.1000" /> 
</g>
<g style="fill:#FFFFFF; fill-opacity:1.0000; stroke:none;">
<circle cx="5.0000" cy="5.0000" r="0.1750" /> 
</g>
<g style="fill:#FFFFFF; fill-opacity:1.0000; stroke:none;">
<circle cx="24.0000" cy="13.0000" r="0.1750" /> 
</g>
<g style="fill:#FFFFFF; fill-opacity:1.0000; stroke:none;">
<circle cx="18.7400" cy="4.3300" r="0.1000" /> 
</g>
<g style="fill:#FFFFFF; fill-opacity:1.0000; stroke:none;">
<circle cx="25.5000" cy="19.0000" r="0.1750" /> 
</g>
<g style="fill:#FFFFFF; fill-opacity:1.0000; stroke:none;">
<circle cx="5.0000" cy="9.0000" r="0.1750" /> 
</g>
<g style="fill:#FFFFFF; fill-opacity:1.0000; stroke:none;">
<circle cx="11.7500" cy="7.2500" r="0.1000" /> 
</g>
<g style="fill:#FFFFFF; fill-opacity:1.0000; stroke:none;">
<circle cx="5.0000" cy="21.0000" r="0.1750" /> 
</g>
<g style="fill:#FFFFFF; fill-opacity:1.0000; stroke:none;">
<circle cx="25.5000" cy="17.0000" r="0.1750" /> 
</g>
<g style="fill:#FFFFFF; fill-opacity:1.0000; stroke:none;">
<circle cx="25.5000" cy="11.0000" r="0.1750" /> 
</g>
<g style="fill:#FFFFFF; fill-opacity:1.0000; stroke:none;">
<circle cx="24.0000" cy="11.0000" r="0.1750" /> 
</g>
<g style="fill:#FFFFFF; fill-opacity:1.0000; stroke:none;">
<circle cx="11.7500" cy="7.9500" r="0.1000" /> 
</g>
<g style="fill:#FFFFFF; fill-opacity:1.0000; stroke:none;">
<circle cx="10.2600" cy="3.7100" r="0.1000" /> 
</g>
<g style="fill:#FFFFFF; fill-opacity:1.0000; stroke:none;">
<circle cx="8.5000" cy="24.0000" r="0.1750" /> 
</g>
<g style="fill:#FFFFFF; fill-opacity:1.0000; stroke:none;">
<circle cx="25.5000" cy="23.0000" r="0.1750" /> 
</g>
<g style="fill:#FFFFFF; fill-opacity:1.0000; stroke:none;">
<circle cx="10.2500" cy="4.3400" r="0.1000" /> 
</g>
<g style="fill:#FFFFFF; fill-opacity:1.0000; stroke:none;">
<circle cx="5.0000" cy="13.0000" r="0.1750" /> 
</g>
<g style="fill:#FFFFFF; fill-opacity:1.0000; stroke:none;">
<circle cx="18.7400" cy="3.6000" r="0.1000" /> 
</g>
<g style="fill:#FFFFFF; fill-opacity:1.0000; stroke:none;">
<circle cx="7.0000" cy="24.0000" r="0.1750" /> 
</g>
<g style="fill:#FFFFFF; fill-opacity:1.0000; stroke:none;">
<circle cx="25.5000" cy="21.0000" r="0.1750" /> 
</g>
<g style="fill:#FFFFFF; fill-opacity:1.0000; stroke:none;">
<circle cx="18.7500" cy="10.2500" r="0.1000" /> 
</g>
<g style="fill:#FFFFFF; fill-opacity:1.0000; stroke:none;">
<circle cx="8.5000" cy="26.0000" r="0.1750" /> 
</g>
<g style="fill:#FFFFFF; fill-opacity:1.0000; stroke:none;">
<circle cx="10.2500" cy="10.2500" r="0.1000" /> 
</g>
<g style="fill:#FFFFFF; fill-opacity:1.0000; stroke:none;">
<circle cx="25.5000" cy="7.0000" r="0.1750" /> 
</g>
<g style="fill:#FFFFFF; fill-opacity:1.0000; stroke:none;">
<circle cx="3.5000" cy="23.0000" r="0.1750" /> 
</g>
<g style="fill:#FFFFFF; fill-opacity:1.0000; stroke:none;">
<circle cx="3.5000" cy="13.0000" r="0.1750" /> 
</g>
<g style="fill:#FFFFFF; fill-opacity:1.0000; stroke:none;">
<circle cx="15.7500" cy="8.7500" r="0.1000" /> 
</g>
<g style="fill:#FFFFFF; fill-opacity:1.0000; stroke:none;">
<circle cx="25.5000" cy="9.0000" r="0.1750" /> 
</g>
<g style="fill:#FFFFFF; fill-opacity:1.0000; stroke:none;">
<circle cx="24.0000" cy="15.0000" r="0.1750" /> 
</g>
<g style="fill:#FFFFFF; fill-opacity:1.0000; stroke:none;">
<circle cx="5.0000" cy="7.0000" r="0.1750" /> 
</g>
<g style="fill:#FFFFFF; fill-opacity:1.0000; stroke:none;">
<circle cx="18.9150" cy="7.6650" r="0.1000" /> 
</g>
<g style="fill:#FFFFFF; fill-opacity:1.0000; stroke:none;">
<circle cx="10.0000" cy="8.5000" r="0.1000" /> 
</g>
<g style="fill:#FFFFFF; fill-opacity:1.0000; stroke:none;">
<circle cx="17.2500" cy="6.7500" r="0.1000" /> 
</g>
<g style="fill:#FFFFFF; fill-opacity:1.0000; stroke:none;">
<circle cx="20.5000" cy="23.9625" r="0.1750" /> 
</g>
<g style="fill:#FFFFFF; fill-opacity:1.0000; stroke:none;">
<circle cx="15.8600" cy="5.2700" r="0.1000" /> 
</g>
<g style="fill:#FFFFFF; fill-opacity:1.0000; stroke:none;">
<circle cx="21.2500" cy="6.0000" r="0.1000" /> 
</g>
<g style="fill:#FFFFFF; fill-opacity:1.0000; stroke:none;">
<circle cx="7.7500" cy="6.0000" r="0.1000" /> 
</g>
<g style="fill:#FFFFFF; fill-opacity:1.0000; stroke:none;">
<circle cx="12.9300" cy="5.2699" r="0.1000" /> 
</g>
<g style="fill:#FFFFFF; fill-opacity:1.0000; stroke:none;">
<circle cx="13.7500" cy="9.2500" r="0.1000" /> 
</g>
<g style="fill:#FFFFFF; fill-opacity:1.0000; stroke:none;">
<circle cx="10.3800" cy="25.0000" r="0.1750" /> 
</g>
<g style="fill:#FFFFFF; fill-opacity:1.0000; stroke:none;">
<circle cx="12.9200" cy="25.0000" r="0.1750" /> 
</g>
<g style="fill:#FFFFFF; fill-opacity:1.0000; stroke:none;">
<circle cx="15.4600" cy="25.0000" r="0.1750" /> 
</g>
<g style="fill:#FFFFFF; fill-opacity:1.0000; stroke:none;">
<circle cx="18.0000" cy="25.0000" r="0.1750" /> 
</g> 
</svg>
